<svg xmlns="http://www.w3.org/2000/svg" xmlns:xlink="http://www.w3.org/1999/xlink" width="500" zoomAndPan="magnify" viewBox="0 0 375 374.999991" height="500" preserveAspectRatio="xMidYMid meet" version="1.0"><defs><clipPath id="id1"><path d="M 76.714844 17.386719 L 297.964844 17.386719 L 297.964844 357.886719 L 76.714844 357.886719 Z M 76.714844 17.386719 " clip-rule="nonzero"/></clipPath></defs><g clip-path="url(#id1)"><path fill="#ffffff" d="M 297.964844 128.542969 C 297.964844 67.292969 248.4375 17.648438 187.347656 17.648438 C 126.253906 17.648438 76.714844 67.292969 76.714844 128.542969 C 76.714844 129.625 76.859375 130.707031 76.871094 131.792969 C 76.871094 131.820312 76.796875 131.820312 76.796875 131.820312 C 76.796875 134.292969 76.972656 136.871094 77.261719 139.546875 C 77.316406 140.046875 77.390625 140.503906 77.421875 140.996094 C 77.707031 143.269531 78.0625 145.617188 78.511719 148.007812 C 78.796875 149.699219 79.101562 151.363281 79.492188 152.996094 C 96.382812 228.152344 187.320312 357.636719 187.320312 357.636719 C 187.320312 357.636719 268.972656 239.089844 291.964844 164.332031 C 293.78125 158.921875 295.207031 153.34375 296.203125 147.609375 C 297.277344 141.917969 297.957031 136.613281 297.957031 131.820312 C 297.957031 131.460938 297.828125 131.144531 297.828125 130.792969 C 297.839844 130.035156 297.964844 129.308594 297.964844 128.542969 Z M 187.347656 186.410156 C 154.980469 186.410156 128.757812 160.132812 128.757812 127.71875 C 128.757812 95.300781 154.964844 69.019531 187.347656 69.019531 C 219.671875 69.019531 245.914062 95.292969 245.914062 127.71875 C 245.910156 160.125 219.671875 186.410156 187.347656 186.410156 Z M 187.347656 186.410156 " fill-opacity="1" fill-rule="nonzero"/></g></svg>