<svg xmlns="http://www.w3.org/2000/svg" xmlns:xlink="http://www.w3.org/1999/xlink" width="500" zoomAndPan="magnify" viewBox="0 0 375 374.999991" height="500" preserveAspectRatio="xMidYMid meet" version="1.0"><defs><clipPath id="id1"><path d="M 82 17.078125 L 293 17.078125 L 293 357.578125 L 82 357.578125 Z M 82 17.078125 " clip-rule="nonzero"/></clipPath></defs><g clip-path="url(#id1)"><path fill="#ffffff" d="M 187.375 17.078125 C 185.65625 17.082031 183.9375 17.128906 182.21875 17.214844 C 180.503906 17.304688 178.789062 17.433594 177.078125 17.605469 C 175.367188 17.777344 173.660156 17.988281 171.960938 18.242188 C 170.257812 18.5 168.566406 18.796875 166.878906 19.132812 C 165.191406 19.472656 163.515625 19.851562 161.847656 20.269531 C 160.179688 20.691406 158.523438 21.152344 156.878906 21.652344 C 155.234375 22.152344 153.601562 22.695312 151.980469 23.277344 C 150.363281 23.859375 148.761719 24.476562 147.171875 25.136719 C 145.582031 25.796875 144.011719 26.496094 142.457031 27.230469 C 140.902344 27.96875 139.367188 28.742188 137.851562 29.554688 C 136.335938 30.367188 134.839844 31.214844 133.367188 32.101562 C 131.890625 32.984375 130.441406 33.90625 129.011719 34.863281 C 127.582031 35.820312 126.175781 36.808594 124.792969 37.835938 C 123.414062 38.859375 122.058594 39.917969 120.730469 41.011719 C 119.398438 42.101562 118.097656 43.226562 116.824219 44.378906 C 115.550781 45.535156 114.304688 46.722656 113.089844 47.9375 C 111.871094 49.152344 110.6875 50.398438 109.53125 51.671875 C 108.375 52.949219 107.253906 54.25 106.164062 55.578125 C 105.070312 56.90625 104.011719 58.261719 102.988281 59.644531 C 101.960938 61.027344 100.972656 62.429688 100.015625 63.859375 C 99.058594 65.289062 98.140625 66.742188 97.253906 68.21875 C 96.367188 69.691406 95.519531 71.1875 94.707031 72.703125 C 93.898438 74.222656 93.121094 75.757812 92.386719 77.308594 C 91.648438 78.863281 90.953125 80.4375 90.292969 82.023438 C 89.632812 83.613281 89.011719 85.214844 88.429688 86.835938 C 87.847656 88.453125 87.308594 90.085938 86.808594 91.730469 C 86.304688 93.378906 85.84375 95.035156 85.425781 96.703125 C 85.003906 98.371094 84.625 100.046875 84.289062 101.734375 C 83.949219 103.421875 83.652344 105.113281 83.398438 106.816406 C 83.144531 108.515625 82.929688 110.222656 82.757812 111.933594 C 82.589844 113.644531 82.457031 115.359375 82.371094 117.078125 C 82.285156 118.796875 82.238281 120.515625 82.234375 122.234375 C 82.234375 157.285156 117.683594 215.972656 146.121094 257.433594 L 119.484375 257.433594 L 94.453125 357.578125 L 280.300781 357.578125 L 255.269531 257.433594 L 228.632812 257.433594 C 257.070312 215.972656 292.519531 157.285156 292.519531 122.234375 C 292.515625 120.515625 292.46875 118.796875 292.382812 117.078125 C 292.292969 115.359375 292.164062 113.644531 291.992188 111.933594 C 291.824219 110.222656 291.609375 108.515625 291.355469 106.816406 C 291.097656 105.113281 290.804688 103.421875 290.464844 101.734375 C 290.125 100.046875 289.746094 98.371094 289.328125 96.703125 C 288.90625 95.035156 288.445312 93.378906 287.945312 91.730469 C 287.445312 90.085938 286.902344 88.453125 286.324219 86.835938 C 285.742188 85.214844 285.121094 83.613281 284.460938 82.023438 C 283.800781 80.4375 283.105469 78.863281 282.367188 77.308594 C 281.628906 75.757812 280.855469 74.222656 280.042969 72.703125 C 279.234375 71.1875 278.382812 69.691406 277.5 68.21875 C 276.613281 66.742188 275.695312 65.289062 274.738281 63.859375 C 273.78125 62.429688 272.789062 61.027344 271.765625 59.644531 C 270.742188 58.261719 269.683594 56.90625 268.589844 55.578125 C 267.5 54.25 266.375 52.949219 265.222656 51.671875 C 264.066406 50.398438 262.878906 49.152344 261.664062 47.9375 C 260.449219 46.722656 259.203125 45.535156 257.929688 44.378906 C 256.65625 43.226562 255.351562 42.101562 254.023438 41.011719 C 252.695312 39.917969 251.339844 38.859375 249.957031 37.835938 C 248.578125 36.808594 247.171875 35.820312 245.742188 34.863281 C 244.3125 33.90625 242.859375 32.984375 241.386719 32.101562 C 239.910156 31.214844 238.417969 30.367188 236.902344 29.554688 C 235.382812 28.742188 233.847656 27.96875 232.296875 27.230469 C 230.742188 26.496094 229.167969 25.796875 227.582031 25.136719 C 225.992188 24.476562 224.390625 23.859375 222.769531 23.277344 C 221.152344 22.695312 219.519531 22.152344 217.875 21.652344 C 216.230469 21.152344 214.574219 20.691406 212.90625 20.269531 C 211.238281 19.851562 209.5625 19.472656 207.875 19.132812 C 206.1875 18.796875 204.496094 18.5 202.792969 18.242188 C 201.09375 17.988281 199.386719 17.777344 197.675781 17.605469 C 195.964844 17.433594 194.25 17.304688 192.53125 17.214844 C 190.816406 17.128906 189.097656 17.082031 187.375 17.078125 Z M 239.648438 277.460938 L 254.667969 337.550781 L 120.085938 337.550781 L 135.105469 277.460938 L 159.941406 277.460938 C 169.550781 290.882812 176.960938 300.496094 179.964844 303.699219 L 187.976562 313.914062 L 195.988281 303.699219 C 198.390625 300.496094 205.800781 290.882812 216.015625 277.460938 Z M 187.375 280.867188 C 157.9375 241.210938 102.261719 158.886719 102.261719 122.234375 C 102.261719 120.839844 102.296875 119.449219 102.363281 118.058594 C 102.433594 116.664062 102.535156 115.277344 102.671875 113.890625 C 102.808594 112.503906 102.980469 111.121094 103.183594 109.742188 C 103.386719 108.367188 103.625 106.992188 103.898438 105.628906 C 104.167969 104.261719 104.472656 102.902344 104.8125 101.550781 C 105.152344 100.199219 105.523438 98.855469 105.925781 97.523438 C 106.332031 96.191406 106.769531 94.867188 107.238281 93.554688 C 107.707031 92.246094 108.207031 90.945312 108.742188 89.660156 C 109.273438 88.371094 109.839844 87.097656 110.433594 85.839844 C 111.03125 84.578125 111.65625 83.335938 112.3125 82.105469 C 112.96875 80.878906 113.65625 79.667969 114.371094 78.472656 C 115.085938 77.277344 115.832031 76.101562 116.605469 74.941406 C 117.378906 73.78125 118.183594 72.644531 119.011719 71.523438 C 119.839844 70.40625 120.699219 69.308594 121.582031 68.230469 C 122.464844 67.15625 123.375 66.101562 124.3125 65.066406 C 125.246094 64.035156 126.207031 63.027344 127.191406 62.042969 C 128.175781 61.058594 129.183594 60.097656 130.21875 59.160156 C 131.25 58.226562 132.304688 57.316406 133.378906 56.433594 C 134.457031 55.546875 135.554688 54.691406 136.671875 53.859375 C 137.792969 53.03125 138.929688 52.230469 140.089844 51.457031 C 141.246094 50.679688 142.425781 49.9375 143.617188 49.21875 C 144.8125 48.503906 146.023438 47.816406 147.253906 47.160156 C 148.480469 46.503906 149.726562 45.878906 150.984375 45.28125 C 152.246094 44.6875 153.519531 44.121094 154.804688 43.589844 C 156.089844 43.054688 157.390625 42.554688 158.703125 42.085938 C 160.015625 41.617188 161.335938 41.179688 162.667969 40.773438 C 164.003906 40.371094 165.34375 40 166.695312 39.660156 C 168.046875 39.320312 169.40625 39.015625 170.773438 38.746094 C 172.136719 38.472656 173.507812 38.234375 174.886719 38.03125 C 176.265625 37.828125 177.648438 37.65625 179.035156 37.519531 C 180.421875 37.382812 181.808594 37.28125 183.199219 37.210938 C 184.589844 37.144531 185.984375 37.109375 187.375 37.109375 C 188.769531 37.109375 190.160156 37.144531 191.554688 37.210938 C 192.945312 37.28125 194.332031 37.382812 195.71875 37.519531 C 197.105469 37.65625 198.488281 37.828125 199.867188 38.03125 C 201.242188 38.234375 202.617188 38.472656 203.980469 38.746094 C 205.347656 39.015625 206.707031 39.320312 208.058594 39.660156 C 209.410156 40 210.75 40.371094 212.085938 40.773438 C 213.417969 41.179688 214.738281 41.617188 216.050781 42.085938 C 217.363281 42.554688 218.660156 43.054688 219.949219 43.589844 C 221.234375 44.121094 222.507812 44.6875 223.769531 45.28125 C 225.027344 45.878906 226.269531 46.503906 227.5 47.160156 C 228.726562 47.816406 229.9375 48.503906 231.132812 49.21875 C 232.328125 49.9375 233.503906 50.679688 234.664062 51.457031 C 235.820312 52.230469 236.960938 53.03125 238.078125 53.859375 C 239.199219 54.691406 240.296875 55.546875 241.371094 56.433594 C 242.449219 57.316406 243.503906 58.226562 244.535156 59.160156 C 245.566406 60.097656 246.578125 61.058594 247.5625 62.042969 C 248.546875 63.027344 249.507812 64.035156 250.441406 65.066406 C 251.378906 66.101562 252.289062 67.15625 253.171875 68.230469 C 254.054688 69.308594 254.910156 70.40625 255.742188 71.527344 C 256.570312 72.644531 257.371094 73.78125 258.148438 74.941406 C 258.921875 76.101562 259.664062 77.277344 260.382812 78.472656 C 261.097656 79.667969 261.785156 80.878906 262.441406 82.105469 C 263.097656 83.335938 263.722656 84.578125 264.320312 85.839844 C 264.914062 87.097656 265.480469 88.371094 266.011719 89.660156 C 266.546875 90.945312 267.046875 92.246094 267.515625 93.554688 C 267.984375 94.867188 268.421875 96.191406 268.824219 97.523438 C 269.230469 98.855469 269.601562 100.199219 269.941406 101.550781 C 270.277344 102.902344 270.582031 104.261719 270.855469 105.628906 C 271.128906 106.992188 271.367188 108.367188 271.570312 109.742188 C 271.773438 111.121094 271.945312 112.503906 272.082031 113.890625 C 272.21875 115.277344 272.320312 116.664062 272.386719 118.058594 C 272.457031 119.449219 272.492188 120.839844 272.492188 122.234375 C 272.492188 158.886719 216.816406 241.210938 187.375 280.867188 Z M 187.375 280.867188 " fill-opacity="1" fill-rule="nonzero"/></g><path fill="#ffffff" d="M 187.375 87.183594 C 186.066406 87.183594 184.757812 87.246094 183.449219 87.375 C 182.144531 87.503906 180.847656 87.695312 179.5625 87.953125 C 178.277344 88.207031 177.003906 88.527344 175.75 88.90625 C 174.496094 89.289062 173.261719 89.730469 172.046875 90.230469 C 170.835938 90.734375 169.652344 91.292969 168.496094 91.914062 C 167.339844 92.53125 166.214844 93.203125 165.125 93.933594 C 164.03125 94.664062 162.980469 95.445312 161.964844 96.277344 C 160.953125 97.109375 159.980469 97.988281 159.054688 98.914062 C 158.125 99.84375 157.246094 100.8125 156.414062 101.828125 C 155.582031 102.84375 154.800781 103.894531 154.074219 104.984375 C 153.34375 106.078125 152.671875 107.199219 152.050781 108.359375 C 151.433594 109.515625 150.875 110.699219 150.371094 111.910156 C 149.871094 113.125 149.429688 114.359375 149.046875 115.613281 C 148.667969 116.867188 148.347656 118.140625 148.09375 119.425781 C 147.835938 120.714844 147.644531 122.007812 147.515625 123.316406 C 147.386719 124.621094 147.324219 125.929688 147.324219 127.242188 C 147.324219 128.554688 147.386719 129.863281 147.515625 131.167969 C 147.644531 132.472656 147.835938 133.769531 148.09375 135.058594 C 148.347656 136.34375 148.667969 137.613281 149.046875 138.871094 C 149.429688 140.125 149.871094 141.359375 150.371094 142.570312 C 150.875 143.785156 151.433594 144.96875 152.050781 146.125 C 152.671875 147.28125 153.34375 148.40625 154.074219 149.496094 C 154.800781 150.589844 155.582031 151.640625 156.414062 152.65625 C 157.246094 153.667969 158.125 154.640625 159.054688 155.566406 C 159.980469 156.496094 160.953125 157.375 161.964844 158.207031 C 162.980469 159.039062 164.03125 159.820312 165.125 160.550781 C 166.214844 161.277344 167.339844 161.953125 168.496094 162.570312 C 169.652344 163.1875 170.835938 163.75 172.046875 164.25 C 173.261719 164.753906 174.496094 165.195312 175.75 165.574219 C 177.003906 165.957031 178.277344 166.273438 179.5625 166.53125 C 180.847656 166.785156 182.144531 166.980469 183.449219 167.109375 C 184.757812 167.234375 186.066406 167.300781 187.375 167.300781 C 188.6875 167.300781 189.996094 167.234375 191.300781 167.109375 C 192.609375 166.980469 193.902344 166.785156 195.191406 166.53125 C 196.476562 166.273438 197.75 165.957031 199.003906 165.574219 C 200.257812 165.195312 201.492188 164.753906 202.703125 164.25 C 203.917969 163.75 205.101562 163.1875 206.257812 162.570312 C 207.414062 161.953125 208.539062 161.277344 209.628906 160.550781 C 210.71875 159.820312 211.773438 159.039062 212.785156 158.207031 C 213.800781 157.375 214.769531 156.496094 215.699219 155.566406 C 216.625 154.640625 217.507812 153.667969 218.339844 152.65625 C 219.171875 151.640625 219.953125 150.589844 220.679688 149.496094 C 221.410156 148.40625 222.082031 147.28125 222.699219 146.125 C 223.320312 144.96875 223.878906 143.785156 224.382812 142.570312 C 224.882812 141.359375 225.324219 140.125 225.707031 138.871094 C 226.085938 137.613281 226.40625 136.34375 226.660156 135.058594 C 226.917969 133.769531 227.109375 132.472656 227.238281 131.167969 C 227.367188 129.863281 227.429688 128.554688 227.429688 127.242188 C 227.429688 125.929688 227.367188 124.621094 227.238281 123.316406 C 227.109375 122.007812 226.917969 120.714844 226.660156 119.425781 C 226.40625 118.140625 226.085938 116.867188 225.707031 115.613281 C 225.324219 114.359375 224.882812 113.125 224.382812 111.910156 C 223.878906 110.699219 223.320312 109.515625 222.699219 108.359375 C 222.082031 107.199219 221.410156 106.078125 220.679688 104.984375 C 219.953125 103.894531 219.171875 102.84375 218.339844 101.828125 C 217.507812 100.8125 216.625 99.84375 215.699219 98.914062 C 214.769531 97.988281 213.800781 97.109375 212.785156 96.277344 C 211.773438 95.445312 210.71875 94.664062 209.628906 93.933594 C 208.539062 93.203125 207.414062 92.53125 206.257812 91.914062 C 205.101562 91.292969 203.917969 90.734375 202.703125 90.230469 C 201.492188 89.730469 200.257812 89.289062 199.003906 88.90625 C 197.75 88.527344 196.476562 88.207031 195.191406 87.953125 C 193.902344 87.695312 192.609375 87.503906 191.300781 87.375 C 189.996094 87.246094 188.6875 87.183594 187.375 87.183594 Z M 187.375 147.269531 C 186.71875 147.269531 186.066406 147.238281 185.414062 147.175781 C 184.761719 147.109375 184.113281 147.015625 183.46875 146.886719 C 182.828125 146.757812 182.191406 146.597656 181.5625 146.410156 C 180.933594 146.21875 180.320312 145.996094 179.710938 145.746094 C 179.105469 145.496094 178.515625 145.214844 177.9375 144.90625 C 177.359375 144.597656 176.796875 144.261719 176.25 143.894531 C 175.703125 143.53125 175.179688 143.140625 174.671875 142.722656 C 174.164062 142.308594 173.679688 141.867188 173.214844 141.40625 C 172.75 140.941406 172.3125 140.457031 171.894531 139.949219 C 171.480469 139.441406 171.089844 138.914062 170.726562 138.371094 C 170.359375 137.824219 170.023438 137.261719 169.714844 136.683594 C 169.40625 136.105469 169.125 135.511719 168.875 134.90625 C 168.621094 134.300781 168.402344 133.683594 168.210938 133.054688 C 168.023438 132.429688 167.863281 131.792969 167.734375 131.148438 C 167.605469 130.503906 167.511719 129.859375 167.445312 129.203125 C 167.382812 128.550781 167.347656 127.898438 167.347656 127.242188 C 167.347656 126.585938 167.382812 125.929688 167.445312 125.277344 C 167.511719 124.625 167.605469 123.976562 167.734375 123.335938 C 167.863281 122.691406 168.023438 122.054688 168.210938 121.425781 C 168.402344 120.800781 168.621094 120.183594 168.875 119.578125 C 169.125 118.96875 169.40625 118.378906 169.714844 117.800781 C 170.023438 117.222656 170.359375 116.660156 170.726562 116.113281 C 171.089844 115.570312 171.480469 115.042969 171.894531 114.535156 C 172.3125 114.027344 172.75 113.542969 173.214844 113.078125 C 173.679688 112.613281 174.164062 112.175781 174.671875 111.757812 C 175.179688 111.34375 175.703125 110.953125 176.25 110.585938 C 176.796875 110.222656 177.359375 109.886719 177.9375 109.578125 C 178.515625 109.269531 179.105469 108.988281 179.710938 108.738281 C 180.320312 108.484375 180.933594 108.265625 181.5625 108.074219 C 182.191406 107.882812 182.828125 107.726562 183.46875 107.597656 C 184.113281 107.46875 184.761719 107.371094 185.414062 107.308594 C 186.066406 107.246094 186.71875 107.210938 187.375 107.210938 C 188.03125 107.210938 188.6875 107.246094 189.339844 107.308594 C 189.992188 107.371094 190.640625 107.46875 191.285156 107.597656 C 191.925781 107.726562 192.5625 107.882812 193.191406 108.074219 C 193.816406 108.265625 194.433594 108.484375 195.039062 108.738281 C 195.648438 108.988281 196.238281 109.269531 196.816406 109.578125 C 197.394531 109.886719 197.957031 110.222656 198.503906 110.585938 C 199.046875 110.953125 199.574219 111.34375 200.082031 111.757812 C 200.589844 112.175781 201.074219 112.613281 201.539062 113.078125 C 202 113.542969 202.441406 114.027344 202.859375 114.535156 C 203.273438 115.042969 203.664062 115.570312 204.027344 116.113281 C 204.394531 116.660156 204.730469 117.222656 205.039062 117.800781 C 205.347656 118.378906 205.628906 118.96875 205.878906 119.578125 C 206.128906 120.183594 206.351562 120.800781 206.542969 121.425781 C 206.730469 122.054688 206.890625 122.691406 207.019531 123.335938 C 207.148438 123.976562 207.242188 124.625 207.308594 125.277344 C 207.371094 125.929688 207.402344 126.585938 207.402344 127.242188 C 207.402344 127.898438 207.371094 128.550781 207.308594 129.203125 C 207.242188 129.859375 207.148438 130.503906 207.019531 131.148438 C 206.890625 131.792969 206.730469 132.429688 206.542969 133.054688 C 206.351562 133.683594 206.128906 134.300781 205.878906 134.90625 C 205.628906 135.511719 205.347656 136.105469 205.039062 136.683594 C 204.730469 137.261719 204.394531 137.824219 204.027344 138.371094 C 203.664062 138.914062 203.273438 139.441406 202.859375 139.949219 C 202.441406 140.457031 202 140.941406 201.539062 141.40625 C 201.074219 141.867188 200.589844 142.308594 200.082031 142.722656 C 199.574219 143.140625 199.046875 143.53125 198.503906 143.894531 C 197.957031 144.261719 197.394531 144.597656 196.816406 144.90625 C 196.238281 145.214844 195.648438 145.496094 195.039062 145.746094 C 194.433594 145.996094 193.816406 146.21875 193.191406 146.410156 C 192.5625 146.597656 191.925781 146.757812 191.285156 146.886719 C 190.640625 147.015625 189.992188 147.109375 189.339844 147.175781 C 188.6875 147.238281 188.03125 147.269531 187.375 147.269531 Z M 187.375 147.269531 " fill-opacity="1" fill-rule="nonzero"/></svg>