<svg xmlns="http://www.w3.org/2000/svg" xmlns:xlink="http://www.w3.org/1999/xlink" width="500" zoomAndPan="magnify" viewBox="0 0 375 374.999991" height="500" preserveAspectRatio="xMidYMid meet" version="1.0"><defs><clipPath id="id1"><path d="M 12.484375 12.484375 L 362.734375 12.484375 L 362.734375 362.734375 L 12.484375 362.734375 Z M 12.484375 12.484375 " clip-rule="nonzero"/></clipPath><clipPath id="id2"><path d="M 54 127.953125 L 337.441406 127.953125 L 337.441406 247.203125 L 54 247.203125 Z M 54 127.953125 " clip-rule="nonzero"/></clipPath></defs><g clip-path="url(#id1)"><path fill="#d9d9d9" d="M 187.609375 12.484375 C 90.890625 12.484375 12.484375 90.890625 12.484375 187.609375 C 12.484375 284.328125 90.890625 362.734375 187.609375 362.734375 C 284.328125 362.734375 362.734375 284.328125 362.734375 187.609375 C 362.734375 90.890625 284.328125 12.484375 187.609375 12.484375 " fill-opacity="1" fill-rule="nonzero"/></g><g clip-path="url(#id2)"><path fill="#ffffff" d="M 337.082031 187.578125 L 277.550781 127.953125 L 277.550781 172.671875 L 54.300781 172.671875 L 54.300781 202.484375 L 277.550781 202.484375 L 277.550781 247.203125 Z M 337.082031 187.578125 " fill-opacity="1" fill-rule="nonzero"/></g></svg>