<svg xmlns="http://www.w3.org/2000/svg" xmlns:xlink="http://www.w3.org/1999/xlink" width="500" zoomAndPan="magnify" viewBox="0 0 375 374.999991" height="500" preserveAspectRatio="xMidYMid meet" version="1.0"><defs><clipPath id="id1"><path d="M 73 15.785156 L 302 15.785156 L 302 359.285156 L 73 359.285156 Z M 73 15.785156 " clip-rule="nonzero"/></clipPath></defs><g clip-path="url(#id1)"><path fill="#ffffff" d="M 187.402344 15.785156 C 124.222656 15.785156 73.007812 67.050781 73.007812 130.289062 C 73.007812 151.75 78.90625 171.828125 89.171875 188.996094 L 187.398438 359.296875 L 285.703125 188.875 C 295.917969 171.734375 301.792969 151.699219 301.792969 130.289062 C 301.796875 67.046875 250.582031 15.785156 187.402344 15.785156 Z M 187.402344 168.605469 C 166.261719 168.605469 149.121094 151.449219 149.125 130.285156 C 149.125 109.128906 166.265625 91.96875 187.402344 91.96875 C 208.546875 91.96875 225.6875 109.125 225.6875 130.285156 C 225.6875 151.449219 208.546875 168.605469 187.402344 168.605469 Z M 187.402344 168.605469 " fill-opacity="1" fill-rule="nonzero"/></g></svg>