<svg xmlns="http://www.w3.org/2000/svg" xmlns:xlink="http://www.w3.org/1999/xlink" width="500" zoomAndPan="magnify" viewBox="0 0 375 374.999991" height="500" preserveAspectRatio="xMidYMid meet" version="1.0"><defs><clipPath id="d2edb54646"><path d="M 13.136719 13.136719 L 361.886719 13.136719 L 361.886719 361.886719 L 13.136719 361.886719 Z M 13.136719 13.136719 " clip-rule="nonzero"/></clipPath><clipPath id="2578698bea"><path d="M 19.511719 19.511719 L 355.511719 19.511719 L 355.511719 355.511719 L 19.511719 355.511719 Z M 19.511719 19.511719 " clip-rule="nonzero"/></clipPath><clipPath id="ff710b9ef5"><path d="M 91 48.964844 L 284.484375 48.964844 L 284.484375 325.714844 L 91 325.714844 Z M 91 48.964844 " clip-rule="nonzero"/></clipPath></defs><g clip-path="url(#d2edb54646)"><path fill="#ff914d" d="M 187.511719 13.136719 C 91.207031 13.136719 13.136719 91.207031 13.136719 187.511719 C 13.136719 283.816406 91.207031 361.886719 187.511719 361.886719 C 283.816406 361.886719 361.886719 283.816406 361.886719 187.511719 C 361.886719 91.207031 283.816406 13.136719 187.511719 13.136719 " fill-opacity="1" fill-rule="nonzero"/></g><g clip-path="url(#2578698bea)"><path fill="#ffffff" d="M 187.511719 19.511719 C 94.726562 19.511719 19.511719 94.726562 19.511719 187.511719 C 19.511719 280.296875 94.726562 355.511719 187.511719 355.511719 C 280.296875 355.511719 355.511719 280.296875 355.511719 187.511719 C 355.511719 94.726562 280.296875 19.511719 187.511719 19.511719 " fill-opacity="1" fill-rule="nonzero"/></g><g clip-path="url(#ff710b9ef5)"><path fill="#ff914d" d="M 102.769531 325.71875 C 101.351562 325.71875 100.027344 324.835938 99.527344 323.421875 C 99.421875 323.117188 96.886719 315.871094 94.613281 304 C 92.523438 293.082031 90.277344 276.011719 91.445312 256.707031 C 92.765625 234.933594 98.066406 214.8125 107.207031 196.90625 C 117.347656 177.039062 132.238281 159.902344 151.539062 145.855469 C 148.792969 145.371094 145.617188 144.675781 142.265625 143.683594 C 136.378906 141.941406 131.144531 139.632812 126.710938 136.832031 C 121.03125 133.234375 116.648438 128.808594 113.6875 123.667969 C 106.003906 110.335938 107.910156 92.65625 119.347656 71.128906 L 122.585938 65.035156 L 125.503906 71.289062 C 125.542969 71.371094 129.703125 80.066406 138.738281 87.515625 C 149.570312 96.445312 162.496094 99.890625 177.21875 97.78125 C 176.324219 95.792969 175.328125 93.195312 174.515625 90.089844 C 172.734375 83.269531 171.503906 72.511719 175.769531 59.984375 L 179.519531 48.964844 L 182.359375 60.253906 C 182.375 60.3125 184.125 66.957031 189.714844 74.8125 C 197.167969 85.273438 207.566406 92.84375 220.621094 97.304688 C 230.820312 100.789062 239.535156 106.785156 245.828125 114.652344 C 251.414062 121.632812 254.875 129.851562 255.566406 137.785156 C 256.148438 144.417969 254.742188 150.320312 251.691406 154.734375 C 253.804688 155.183594 256.199219 155.890625 258.726562 156.980469 C 263.503906 159.046875 267.816406 162.078125 271.542969 165.988281 C 276.125 170.796875 279.8125 176.949219 282.5 184.269531 L 284.457031 189.605469 L 278.824219 188.867188 C 278.476562 188.820312 243.847656 184.574219 235.226562 203.496094 C 230.636719 213.5625 233.203125 224.195312 235.6875 234.480469 C 238.144531 244.652344 240.683594 255.167969 235.925781 264.6875 C 233.351562 269.835938 227.589844 272.792969 219.699219 273.015625 C 212.917969 273.203125 204.925781 271.359375 197.761719 267.953125 C 189.964844 264.25 183.871094 259.054688 180.59375 253.328125 C 176.488281 246.148438 176.757812 238.453125 181.378906 231.074219 C 183.503906 227.679688 186.265625 224.699219 188.9375 221.820312 C 192.695312 217.761719 196.25 213.929688 196.105469 210.765625 C 196.03125 209.171875 194.996094 207.496094 192.9375 205.644531 C 191.527344 204.375 191.410156 202.199219 192.679688 200.789062 C 193.949219 199.375 196.125 199.257812 197.535156 200.527344 C 201.035156 203.675781 202.816406 206.921875 202.976562 210.453125 C 203.25 216.496094 198.75 221.351562 193.980469 226.496094 C 191.527344 229.144531 188.988281 231.882812 187.210938 234.726562 C 183.972656 239.894531 183.757812 245 186.566406 249.910156 C 189.148438 254.433594 194.175781 258.632812 200.710938 261.738281 C 206.929688 264.695312 213.78125 266.296875 219.503906 266.136719 C 222.535156 266.050781 227.90625 265.351562 229.773438 261.609375 C 233.40625 254.339844 231.265625 245.476562 229 236.09375 C 226.371094 225.207031 223.394531 212.867188 228.964844 200.640625 C 231.523438 195.027344 235.910156 190.554688 242 187.355469 C 246.671875 184.902344 252.355469 183.195312 258.886719 182.292969 C 264.671875 181.488281 270.070312 181.453125 273.925781 181.605469 C 269.679688 172.757812 263.667969 166.609375 255.996094 163.296875 C 249.480469 160.480469 244.101562 160.851562 244.046875 160.855469 L 227.863281 162.253906 L 242.09375 154.414062 C 246.886719 151.773438 249.363281 145.78125 248.714844 138.386719 C 247.628906 125.960938 237.835938 110.453125 218.398438 103.816406 C 210.402344 101.082031 203.183594 97.199219 196.945312 92.273438 C 191.941406 88.320312 187.558594 83.695312 183.917969 78.523438 C 182.355469 76.308594 181.066406 74.179688 180.007812 72.234375 C 179.40625 77.550781 179.769531 82.847656 181.101562 88.074219 C 182.730469 94.484375 185.289062 98.382812 185.316406 98.421875 L 188.160156 102.640625 L 183.175781 103.695312 C 172.835938 105.914062 163.03125 105.75 154.035156 103.210938 C 146.804688 101.175781 140.109375 97.613281 134.128906 92.628906 C 128.832031 88.214844 125.0625 83.488281 122.644531 79.925781 C 114.871094 96.632812 113.855469 110.167969 119.636719 120.214844 C 130.269531 138.699219 160.824219 140.078125 161.128906 140.085938 L 171.980469 140.5 L 162.875 146.410156 C 122.984375 172.296875 101.269531 209.464844 98.328125 256.882812 C 97.175781 275.46875 99.320312 291.933594 101.324219 302.472656 C 103.503906 313.929688 105.992188 321.066406 106.015625 321.132812 C 106.644531 322.925781 105.703125 324.890625 103.914062 325.523438 C 103.535156 325.652344 103.148438 325.71875 102.769531 325.71875 " fill-opacity="1" fill-rule="nonzero"/></g></svg>