<svg xmlns="http://www.w3.org/2000/svg" xmlns:xlink="http://www.w3.org/1999/xlink" width="500" zoomAndPan="magnify" viewBox="0 0 375 374.999991" height="500" preserveAspectRatio="xMidYMid meet" version="1.0"><defs><clipPath id="8b79d40d15"><path d="M 13.136719 13.136719 L 361.886719 13.136719 L 361.886719 361.886719 L 13.136719 361.886719 Z M 13.136719 13.136719 " clip-rule="nonzero"/></clipPath><clipPath id="9a39d6010f"><path d="M 19.511719 19.511719 L 355.511719 19.511719 L 355.511719 355.511719 L 19.511719 355.511719 Z M 19.511719 19.511719 " clip-rule="nonzero"/></clipPath><clipPath id="81cc38b5b9"><path d="M 79.058594 45.902344 L 295.808594 45.902344 L 295.808594 329.402344 L 79.058594 329.402344 Z M 79.058594 45.902344 " clip-rule="nonzero"/></clipPath></defs><g clip-path="url(#8b79d40d15)"><path fill="#a0cece" d="M 187.511719 13.136719 C 91.207031 13.136719 13.136719 91.207031 13.136719 187.511719 C 13.136719 283.816406 91.207031 361.886719 187.511719 361.886719 C 283.816406 361.886719 361.886719 283.816406 361.886719 187.511719 C 361.886719 91.207031 283.816406 13.136719 187.511719 13.136719 " fill-opacity="1" fill-rule="nonzero"/></g><g clip-path="url(#9a39d6010f)"><path fill="#ffffff" d="M 187.511719 19.511719 C 94.726562 19.511719 19.511719 94.726562 19.511719 187.511719 C 19.511719 280.296875 94.726562 355.511719 187.511719 355.511719 C 280.296875 355.511719 355.511719 280.296875 355.511719 187.511719 C 355.511719 94.726562 280.296875 19.511719 187.511719 19.511719 " fill-opacity="1" fill-rule="nonzero"/></g><g clip-path="url(#81cc38b5b9)"><path fill="#a0cece" d="M 295.414062 195.84375 L 295.414062 221.636719 C 295.414062 236.089844 292.414062 250.09375 287.210938 262.792969 C 281.71875 275.886719 273.683594 287.847656 263.722656 297.824219 C 260.441406 301.113281 257.042969 304.230469 253.308594 307.066406 C 249.574219 309.898438 245.726562 312.566406 241.707031 314.945312 L 241.539062 314.945312 C 237.351562 317.328125 233.046875 319.539062 228.464844 321.351562 C 223.992188 323.277344 219.523438 324.753906 214.769531 325.941406 L 214.597656 326.113281 C 210.296875 327.132812 205.828125 328.039062 201.355469 328.664062 C 196.886719 329.117188 192.414062 329.402344 187.828125 329.402344 L 187.660156 329.402344 C 183.074219 329.402344 178.605469 329.117188 174.132812 328.664062 C 169.664062 328.039062 165.191406 327.191406 160.890625 326.113281 C 160.890625 325.941406 160.722656 325.941406 160.722656 325.941406 C 151.328125 323.5625 142.554688 319.820312 134.40625 315.230469 C 126.085938 310.46875 118.332031 304.515625 111.65625 297.769531 C 101.695312 287.792969 93.65625 275.886719 88.28125 262.734375 C 82.90625 250.09375 80.074219 236.035156 80.074219 221.578125 L 80.074219 201.738281 C 79.453125 199.8125 79.167969 197.996094 79.167969 196.070312 C 79.167969 194.253906 79.453125 192.328125 80.074219 190.570312 L 80.074219 153.78125 C 80.074219 139.152344 82.90625 125.320312 88.28125 112.625 C 93.65625 99.414062 101.695312 87.625 111.65625 77.648438 C 121.613281 67.667969 133.554688 59.621094 146.628906 54.121094 C 159.417969 48.90625 173.230469 45.902344 187.660156 45.902344 C 202.261719 45.902344 216.070312 48.90625 228.746094 54.121094 C 241.992188 59.621094 253.875 67.667969 263.722656 77.648438 C 273.683594 87.625 281.71875 99.414062 287.210938 112.679688 C 292.414062 125.320312 295.414062 139.210938 295.414062 153.835938 L 295.414062 188.417969 C 295.585938 189.605469 295.699219 190.96875 295.699219 192.15625 C 295.699219 193.292969 295.527344 194.652344 295.414062 195.84375 Z M 92.015625 176.457031 C 93.035156 175.832031 94.109375 175.09375 95.296875 174.527344 C 97.675781 173.335938 100.222656 172.148438 103.164062 170.957031 C 101.976562 168.292969 101.070312 165.570312 100.503906 162.738281 C 99.769531 159.164062 99.601562 155.308594 99.882812 151.570312 C 100.789062 143.6875 104.183594 135.921875 110.578125 129.0625 C 116.238281 122.828125 124.273438 117.273438 134.800781 113.132812 C 140.460938 110.753906 147.308594 107.296875 153.703125 102.988281 C 159.195312 99.246094 164.398438 94.9375 168.757812 90.34375 C 172.039062 86.605469 174.699219 82.917969 176.171875 78.894531 C 177.53125 75.605469 177.984375 72.203125 177.359375 68.917969 C 177.078125 67.273438 177.53125 65.800781 178.265625 64.4375 C 179.171875 63.246094 180.472656 62.226562 182.113281 61.886719 C 183.019531 61.71875 184.039062 61.886719 184.945312 62.058594 C 185.847656 62.339844 186.585938 62.792969 187.320312 63.53125 C 195.074219 70.105469 201.300781 76.511719 205.941406 82.917969 C 210.976562 89.777344 214.429688 96.46875 216.183594 102.875 C 217.089844 105.707031 217.542969 108.371094 217.824219 111.09375 C 217.996094 113.019531 218.109375 114.835938 217.996094 116.59375 C 236.898438 117.78125 246.234375 124.472656 250.421875 132.238281 C 254.273438 139.097656 253.988281 146.695312 253.082031 151.738281 C 261.570312 154.855469 268.421875 158.144531 274.078125 161.601562 C 277.644531 163.8125 280.757812 166.082031 283.472656 168.460938 L 283.472656 153.835938 C 283.472656 140.855469 280.925781 128.496094 276.171875 117.160156 C 271.25 105.539062 264.117188 94.9375 255.347656 86.035156 C 246.40625 77.25 235.878906 70.105469 224.277344 65.175781 C 212.957031 60.582031 200.621094 57.863281 187.660156 57.863281 C 174.871094 57.863281 162.53125 60.527344 151.214844 65.175781 C 139.441406 70.105469 128.914062 77.25 120.144531 86.035156 C 111.203125 94.992188 104.070312 105.539062 99.148438 117.160156 C 94.5625 128.496094 92.015625 140.855469 92.015625 153.835938 Z M 92.015625 219.652344 L 92.015625 224.582031 C 92.300781 234.277344 94.109375 243.632812 97.054688 252.476562 C 99.261719 258.878906 102.089844 265.003906 105.542969 270.671875 L 105.542969 228.949219 C 103.617188 227.929688 101.808594 226.738281 100.050781 225.546875 C 97.84375 224.1875 95.75 222.714844 93.488281 221.070312 C 93.488281 220.898438 93.316406 220.898438 93.203125 220.785156 C 93.089844 220.671875 92.640625 220.277344 92.015625 219.652344 Z M 117.484375 235.183594 L 117.484375 286.601562 L 118.390625 287.621094 C 118.84375 288.074219 119.40625 288.640625 120.199219 289.265625 C 122.40625 291.648438 124.785156 293.742188 127.332031 295.839844 C 128.519531 296.75 129.707031 297.769531 131.066406 298.675781 L 131.066406 240.683594 C 128.238281 239.777344 125.691406 238.757812 123.03125 237.679688 C 121.164062 236.828125 119.238281 236.035156 117.484375 235.183594 Z M 142.894531 244.425781 L 142.894531 306.273438 C 145.269531 307.632812 147.816406 308.824219 150.476562 309.84375 C 152.402344 310.75 154.328125 311.488281 156.308594 312.222656 L 156.308594 247.542969 C 153.929688 247.089844 151.382812 246.523438 148.894531 245.898438 C 146.914062 245.445312 144.820312 244.992188 142.894531 244.425781 Z M 162.703125 236.488281 C 162.871094 236.488281 162.984375 236.488281 163.15625 236.488281 C 163.4375 236.488281 163.609375 236.660156 163.777344 236.660156 C 167.625 237.28125 171.644531 237.679688 175.664062 238.019531 C 179.511719 238.300781 183.699219 238.472656 187.71875 238.472656 C 196.207031 238.472656 204.355469 237.847656 211.9375 236.828125 C 219.691406 235.921875 226.992188 234.277344 233.953125 232.351562 C 238.707031 230.875 243.347656 229.230469 247.761719 227.304688 C 252.234375 225.492188 256.535156 223.28125 260.554688 221.070312 L 261.007812 220.785156 L 261.289062 220.617188 C 262.929688 219.59375 264.570312 218.6875 266.210938 217.609375 C 267.683594 216.589844 269.324219 215.511719 270.964844 214.324219 C 271.703125 213.699219 278.832031 207.632812 281.550781 199.242188 C 285.285156 188.53125 281.097656 173.621094 244.367188 161.261719 L 243.914062 161.09375 C 242.445312 160.46875 241.253906 159.449219 240.632812 157.976562 C 240.011719 156.613281 239.898438 154.96875 240.460938 153.496094 C 240.632812 153.328125 241.652344 150.660156 241.652344 146.921875 C 241.933594 139.890625 238.367188 129.460938 215.789062 128.269531 L 215.335938 129.460938 C 215.050781 130.480469 214.597656 131.386719 213.976562 132.464844 C 211.882812 136.773438 209.054688 140.796875 205.488281 144.371094 C 202.09375 147.941406 197.734375 151.230469 193.148438 153.894531 C 185.398438 158.484375 176.511719 161.941406 166.496094 163.871094 C 156.816406 165.96875 146.234375 166.703125 135.425781 166.082031 L 135.253906 166.082031 C 133.613281 165.910156 132.140625 165.175781 131.234375 163.984375 C 130.21875 162.964844 129.59375 161.433594 129.765625 159.789062 L 129.765625 159.617188 C 129.765625 157.976562 130.5 156.613281 131.6875 155.59375 C 132.707031 154.574219 134.234375 154.121094 135.875 154.121094 L 136.046875 154.121094 C 145.894531 154.742188 155.230469 154.121094 163.890625 152.304688 C 172.664062 150.492188 180.53125 147.542969 187.09375 143.6875 C 190.941406 141.476562 194.226562 138.757812 197.054688 136.09375 C 199.714844 133.257812 201.808594 130.253906 203.449219 127.136719 C 203.902344 126.230469 204.1875 125.320312 204.636719 124.132812 C 204.921875 123.222656 205.261719 122.203125 205.542969 121.296875 C 205.542969 121.128906 205.542969 121.011719 205.542969 120.84375 C 205.714844 120.671875 205.714844 120.390625 205.714844 120.21875 C 206.167969 118.007812 206.335938 115.742188 206.335938 113.359375 C 206.167969 110.980469 205.714844 108.429688 204.976562 105.933594 C 203.621094 101.457031 201.414062 96.695312 197.960938 91.761719 C 195.414062 88.019531 192.132812 84.167969 188.28125 80.3125 C 187.660156 82.523438 186.640625 84.789062 185.621094 87 C 183.527344 90.855469 180.699219 94.597656 177.585938 98.167969 C 172.664062 103.554688 166.71875 108.316406 160.496094 112.453125 C 153.195312 117.386719 145.78125 121.242188 139.214844 123.90625 C 130.726562 127.304688 124.332031 131.671875 119.746094 136.433594 C 114.992188 141.476562 112.445312 147.035156 111.882812 152.703125 C 111.597656 155.535156 111.710938 158.371094 112.503906 161.207031 C 113.238281 164.039062 114.425781 166.875 116.070312 169.425781 C 116.351562 169.878906 116.523438 170.164062 116.804688 170.445312 L 117.085938 170.730469 C 118.898438 173.28125 121.105469 175.492188 123.652344 177.589844 C 126.3125 179.515625 129.3125 181.445312 132.707031 182.972656 C 143.855469 187.90625 158.742188 189.664062 176.738281 186.09375 C 192.359375 182.972656 210.183594 175.832031 229.824219 163.132812 C 231.179688 162.226562 232.824219 161.941406 234.292969 162.226562 C 235.765625 162.679688 237.125 163.585938 238.027344 164.890625 C 238.933594 166.25 239.046875 167.894531 238.765625 169.367188 C 238.480469 170.84375 237.578125 172.203125 236.21875 173.109375 C 214.9375 186.828125 195.46875 194.59375 178.210938 197.828125 C 157.949219 201.679688 140.855469 199.472656 127.898438 193.800781 C 123.878906 191.988281 120.3125 189.945312 117.199219 187.566406 C 114.539062 185.46875 111.992188 183.257812 109.898438 180.875 C 104.523438 182.804688 100.675781 185.070312 97.84375 187.28125 C 93.996094 190.402344 92.46875 193.519531 92.355469 196.523438 C 92.355469 199.640625 93.714844 202.644531 95.1875 205.027344 C 97.5625 208.425781 100.222656 210.980469 100.84375 211.433594 C 106.503906 215.628906 112.617188 219.3125 119.292969 222.769531 C 125.972656 226.058594 133.105469 228.890625 140.574219 231.273438 C 144.140625 232.292969 147.875 233.371094 151.609375 234.109375 C 155.117188 235.183594 158.796875 235.921875 162.703125 236.488281 Z M 168.191406 249.1875 L 168.191406 315.511719 C 170.570312 315.964844 172.945312 316.417969 175.324219 316.703125 C 177.417969 316.988281 179.625 317.15625 181.71875 317.328125 L 181.71875 250.207031 C 179.339844 250.035156 177.132812 250.035156 174.699219 249.753906 C 172.664062 249.640625 170.398438 249.46875 168.191406 249.1875 Z M 193.660156 250.207031 L 193.660156 317.269531 C 195.867188 317.101562 198.128906 316.988281 200.222656 316.644531 C 202.601562 316.363281 204.976562 315.910156 207.242188 315.457031 L 207.242188 249.300781 C 205.148438 249.582031 202.941406 249.753906 200.847656 249.921875 C 198.414062 250.035156 196.148438 250.207031 193.660156 250.207031 Z M 283.472656 224.753906 L 283.472656 218.632812 C 280.644531 221.75 278.4375 223.5625 278.4375 223.5625 L 278.152344 223.734375 L 277.871094 224.015625 C 276.398438 225.039062 274.871094 226.113281 273.398438 227.019531 C 272.210938 227.757812 271.191406 228.496094 270.003906 229.230469 L 270.003906 270.671875 C 273.398438 265.003906 276.230469 258.878906 278.492188 252.476562 C 281.4375 243.632812 283.191406 234.390625 283.472656 224.753906 Z M 258.0625 286.601562 L 258.0625 235.808594 C 256.253906 236.714844 254.328125 237.453125 252.574219 238.359375 C 249.914062 239.378906 247.195312 240.457031 244.539062 241.363281 L 244.539062 298.734375 C 245.726562 297.824219 247.085938 296.804688 248.273438 295.898438 C 250.820312 293.800781 253.195312 291.589844 255.402344 289.320312 C 256.027344 288.699219 256.59375 288.132812 257.042969 287.679688 Z M 232.597656 306.273438 L 232.597656 245.046875 C 230.671875 245.5 228.578125 245.957031 226.484375 246.410156 C 224.105469 247.03125 221.558594 247.429688 219.070312 247.882812 L 219.070312 312.28125 C 221.164062 311.542969 223.089844 310.808594 225.011719 309.898438 C 227.730469 308.765625 230.21875 307.574219 232.597656 306.273438 Z M 232.597656 306.273438 " fill-opacity="1" fill-rule="nonzero"/></g></svg>