<svg xmlns="http://www.w3.org/2000/svg" xmlns:xlink="http://www.w3.org/1999/xlink" width="500" zoomAndPan="magnify" viewBox="0 0 375 374.999991" height="500" preserveAspectRatio="xMidYMid meet" version="1.0"><defs><clipPath id="2588f97619"><path d="M 13.136719 13.136719 L 361.886719 13.136719 L 361.886719 361.886719 L 13.136719 361.886719 Z M 13.136719 13.136719 " clip-rule="nonzero"/></clipPath><clipPath id="c8daf2334c"><path d="M 19.511719 19.511719 L 355.511719 19.511719 L 355.511719 355.511719 L 19.511719 355.511719 Z M 19.511719 19.511719 " clip-rule="nonzero"/></clipPath><clipPath id="f2104b651d"><path d="M 87.210938 68 L 287.460938 68 L 287.460938 147 L 87.210938 147 Z M 87.210938 68 " clip-rule="nonzero"/></clipPath><clipPath id="b0a022f5a3"><path d="M 150 228 L 225 228 L 225 309.003906 L 150 309.003906 Z M 150 228 " clip-rule="nonzero"/></clipPath></defs><g clip-path="url(#2588f97619)"><path fill="#a62525" d="M 187.511719 13.136719 C 91.207031 13.136719 13.136719 91.207031 13.136719 187.511719 C 13.136719 283.816406 91.207031 361.886719 187.511719 361.886719 C 283.816406 361.886719 361.886719 283.816406 361.886719 187.511719 C 361.886719 91.207031 283.816406 13.136719 187.511719 13.136719 " fill-opacity="1" fill-rule="nonzero"/></g><g clip-path="url(#c8daf2334c)"><path fill="#ffffff" d="M 187.511719 19.511719 C 94.726562 19.511719 19.511719 94.726562 19.511719 187.511719 C 19.511719 280.296875 94.726562 355.511719 187.511719 355.511719 C 280.296875 355.511719 355.511719 280.296875 355.511719 187.511719 C 355.511719 94.726562 280.296875 19.511719 187.511719 19.511719 " fill-opacity="1" fill-rule="nonzero"/></g><g clip-path="url(#f2104b651d)"><path fill="#a62525" d="M 104.894531 98.445312 L 127.097656 146.996094 L 112.617188 146.996094 C 104.289062 128.761719 95.886719 110.410156 87.414062 91.9375 C 100.34375 85.488281 113.773438 80.351562 127.703125 76.527344 C 141.636719 72.707031 155.804688 70.273438 170.210938 69.222656 C 180.246094 68.449219 190.285156 68.351562 200.335938 68.933594 C 210.382812 69.519531 220.347656 70.777344 230.226562 72.707031 C 240.101562 74.636719 249.808594 77.226562 259.335938 80.46875 C 268.867188 83.710938 278.136719 87.582031 287.144531 92.082031 L 261.9375 146.972656 L 247.457031 146.972656 C 254.898438 130.742188 262.222656 114.820312 269.660156 98.609375 C 258.875 93.941406 247.765625 90.234375 236.339844 87.484375 C 224.910156 84.734375 213.332031 82.984375 201.605469 82.238281 C 193.367188 81.65625 185.125 81.5625 176.878906 81.957031 C 168.628906 82.351562 160.433594 83.234375 152.289062 84.597656 C 144.144531 85.960938 136.109375 87.804688 128.183594 90.117188 C 120.257812 92.433594 112.492188 95.210938 104.894531 98.445312 Z M 104.894531 98.445312 " fill-opacity="1" fill-rule="nonzero"/></g><g clip-path="url(#b0a022f5a3)"><path fill="#a62525" d="M 186.933594 309.195312 C 174.746094 282.601562 162.53125 255.917969 150.296875 229.148438 C 150.800781 229.03125 151.3125 228.953125 151.832031 228.914062 C 155.539062 228.914062 159.25 228.914062 162.933594 228.914062 C 163.222656 228.890625 163.507812 228.917969 163.785156 228.996094 C 164.0625 229.070312 164.320312 229.191406 164.558594 229.359375 C 164.796875 229.523438 164.996094 229.726562 165.164062 229.960938 C 165.332031 230.199219 165.453125 230.457031 165.53125 230.734375 C 172.605469 246.226562 179.691406 261.699219 186.792969 277.15625 C 186.933594 277.414062 187.097656 277.648438 187.289062 277.867188 C 191.351562 269.726562 194.847656 261.46875 198.605469 253.402344 C 202.359375 245.332031 206.09375 237.097656 209.800781 229.03125 L 224.425781 229.03125 L 187.550781 309.101562 Z M 186.933594 309.195312 " fill-opacity="1" fill-rule="nonzero"/></g><path fill="#ff5757" d="M 190.503906 165.617188 L 176.328125 191.316406 C 178.550781 191.617188 180.777344 191.695312 183.015625 191.550781 C 185.210938 191.550781 187.40625 191.550781 189.839844 191.550781 C 190.148438 193.6875 190.148438 195.828125 189.839844 197.964844 C 189.839844 198.699219 188.777344 199.265625 188.28125 199.976562 C 187.902344 200.496094 187.460938 200.960938 186.957031 201.363281 C 186.453125 201.765625 185.90625 202.089844 185.3125 202.34375 C 184.71875 202.597656 184.105469 202.765625 183.464844 202.847656 C 182.824219 202.933594 182.1875 202.929688 181.550781 202.839844 C 175.40625 202.625 169.265625 202.839844 163.101562 202.839844 L 160.3125 202.839844 C 165.039062 193.847656 169.996094 185.398438 174.699219 176.410156 L 161.871094 176.410156 C 161.648438 174.253906 161.648438 172.101562 161.871094 169.949219 C 161.871094 169.617188 162.226562 169.261719 162.507812 169.003906 C 163.410156 168.027344 164.363281 167.105469 165.367188 166.234375 C 165.902344 165.761719 166.523438 165.5 167.234375 165.453125 C 174.699219 165.453125 182.1875 165.453125 189.675781 165.453125 C 189.957031 165.488281 190.230469 165.542969 190.503906 165.617188 Z M 167.445312 170.777344 L 181.265625 170.777344 C 179.894531 173.285156 178.738281 175.507812 177.558594 177.519531 L 174.015625 183.933594 L 170.328125 190.558594 C 169.171875 192.664062 167.964844 194.769531 166.832031 196.992188 C 174.074219 197.417969 181.3125 197.335938 188.542969 196.757812 L 188.542969 192.996094 C 183.816406 192.828125 179.09375 192.996094 174.015625 192.851562 C 175.855469 189.585938 177.460938 186.699219 179.046875 183.839844 C 180.628906 180.976562 182.234375 178.207031 183.769531 175.367188 C 185.304688 172.527344 187.078125 169.757812 188.496094 166.636719 L 167.445312 166.636719 Z M 167.445312 170.777344 " fill-opacity="1" fill-rule="nonzero"/><path fill="#ff5757" d="M 227.96875 191.644531 C 227.96875 194.011719 227.96875 195.976562 227.96875 198.011719 C 227.867188 198.480469 227.640625 198.875 227.28125 199.195312 C 224.09375 202.886719 224.070312 202.886719 219.0625 202.886719 L 199.457031 202.886719 C 199.183594 202.855469 198.914062 202.800781 198.652344 202.71875 C 199.402344 200.941406 200.285156 199.226562 201.296875 197.585938 C 202.21875 195.835938 203.210938 194.128906 204.15625 192.402344 L 207.015625 187.222656 L 209.871094 182.0625 C 210.792969 180.335938 211.714844 178.609375 212.871094 176.527344 C 208.433594 176.335938 204.320312 176.527344 199.902344 176.386719 C 199.902344 174.207031 199.902344 172.171875 199.902344 170.160156 C 200.015625 169.699219 200.242188 169.304688 200.589844 168.980469 C 203.636719 165.429688 203.636719 165.429688 208.410156 165.429688 L 228.675781 165.429688 C 223.953125 174.351562 219.0625 182.703125 214.289062 191.671875 Z M 212.046875 192.996094 C 213.914062 189.636719 215.496094 186.773438 217.101562 183.910156 C 218.707031 181.046875 220.242188 178.253906 221.824219 175.4375 C 223.410156 172.621094 225.0625 169.757812 226.550781 166.660156 L 205.527344 166.660156 L 205.527344 170.777344 C 207.886719 170.777344 210.25 170.777344 212.402344 170.777344 C 214.722656 170.65625 217.039062 170.742188 219.34375 171.039062 L 216.394531 176.410156 L 213.535156 181.589844 C 212.566406 183.292969 211.621094 185.019531 210.652344 186.75 C 209.683594 188.476562 208.714844 190.179688 207.792969 191.929688 C 206.730469 193.558594 205.863281 195.285156 205.195312 197.113281 C 212.398438 197.53125 219.597656 197.441406 226.785156 196.851562 L 226.785156 192.996094 Z M 212.046875 192.996094 " fill-opacity="1" fill-rule="nonzero"/><path fill="#ff5757" d="M 276.628906 198.199219 C 276.394531 198.578125 276.394531 198.746094 276.394531 198.746094 C 272.519531 203.074219 271.667969 203.476562 265.789062 202.863281 C 265.105469 202.746094 264.5625 202.40625 264.15625 201.84375 C 263.425781 200.789062 262.78125 199.6875 262.222656 198.53125 C 262.046875 198.121094 261.765625 197.804688 261.382812 197.582031 C 260.996094 197.359375 260.582031 197.273438 260.140625 197.324219 C 256.054688 197.324219 251.96875 197.324219 247.859375 197.324219 C 247.511719 197.3125 247.179688 197.378906 246.867188 197.53125 C 246.554688 197.679688 246.292969 197.898438 246.085938 198.175781 C 241.667969 203.191406 241.527344 203.242188 235.007812 202.910156 C 234.710938 202.855469 234.417969 202.777344 234.132812 202.671875 C 234.535156 201.84375 234.890625 201.085938 235.289062 200.304688 C 240.796875 190.203125 246.371094 180.125 251.828125 169.996094 C 253.394531 167.53125 255.285156 165.347656 257.496094 163.441406 C 263.992188 175.082031 270.300781 186.699219 276.628906 198.199219 Z M 274.671875 197.207031 L 257.496094 165.925781 L 240.535156 197.042969 C 245.117188 197.632812 245.117188 197.632812 247.101562 194.011719 C 247.242188 193.726562 247.433594 193.46875 247.550781 193.160156 C 247.632812 192.941406 247.746094 192.738281 247.894531 192.554688 C 248.042969 192.375 248.214844 192.21875 248.414062 192.09375 C 248.613281 191.972656 248.828125 191.882812 249.054688 191.828125 C 249.285156 191.777344 249.515625 191.761719 249.75 191.789062 C 254.945312 191.789062 260.140625 191.789062 265.339844 191.789062 C 265.820312 191.777344 266.261719 191.902344 266.664062 192.160156 C 267.070312 192.417969 267.367188 192.765625 267.558594 193.207031 C 268.269531 194.582031 269.070312 195.90625 269.804688 197.207031 Z M 274.671875 197.207031 " fill-opacity="1" fill-rule="nonzero"/><path fill="#ff5757" d="M 109.242188 194.203125 C 109.242188 195.125 109.242188 195.835938 109.242188 196.566406 C 109.304688 197.199219 109.214844 197.808594 108.972656 198.398438 C 108.730469 198.984375 108.363281 199.476562 107.871094 199.878906 C 104.328125 203.3125 103.949219 203.476562 98.253906 202.625 C 98.15625 201.972656 98.09375 201.320312 98.066406 200.660156 C 98.066406 190.960938 98.066406 181.257812 98.066406 171.558594 C 98.0625 170.371094 98.449219 169.332031 99.222656 168.433594 C 99.636719 167.863281 100.117188 167.355469 100.667969 166.917969 C 101.222656 166.476562 101.824219 166.121094 102.472656 165.851562 C 103.125 165.578125 103.800781 165.402344 104.5 165.316406 C 105.199219 165.234375 105.898438 165.246094 106.59375 165.359375 C 109.242188 165.617188 111.933594 165.359375 114.601562 165.359375 C 115.753906 165.316406 116.890625 165.445312 118.003906 165.746094 C 119.117188 166.046875 120.160156 166.503906 121.136719 167.121094 C 122.113281 167.738281 122.976562 168.484375 123.726562 169.359375 C 124.476562 170.238281 125.082031 171.207031 125.539062 172.269531 C 126.058594 173.277344 126.417969 174.339844 126.621094 175.457031 C 126.824219 176.574219 126.859375 177.699219 126.726562 178.824219 C 126.59375 179.953125 126.300781 181.035156 125.84375 182.074219 C 125.386719 183.117188 124.789062 184.066406 124.050781 184.925781 C 122.125 187.226562 120.03125 189.367188 117.769531 191.339844 C 116.855469 192.152344 115.835938 192.789062 114.703125 193.246094 C 113.574219 193.707031 112.398438 193.960938 111.175781 194.011719 Z M 103.710938 166.519531 L 103.710938 197.066406 L 108.175781 197.066406 L 108.175781 188.476562 C 110.730469 188.476562 112.902344 188.59375 115.265625 188.476562 C 115.980469 188.457031 116.691406 188.367188 117.390625 188.210938 C 118.09375 188.050781 118.773438 187.824219 119.429688 187.53125 C 120.085938 187.242188 120.707031 186.886719 121.292969 186.472656 C 121.878906 186.054688 122.421875 185.589844 122.914062 185.066406 C 123.410156 184.542969 123.847656 183.980469 124.230469 183.371094 C 124.617188 182.761719 124.9375 182.121094 125.195312 181.449219 C 125.453125 180.777344 125.640625 180.089844 125.761719 179.378906 C 125.886719 178.671875 125.9375 177.957031 125.917969 177.238281 C 125.898438 176.515625 125.8125 175.808594 125.652344 175.105469 C 125.492188 174.402344 125.269531 173.722656 124.976562 173.066406 C 124.683594 172.410156 124.332031 171.785156 123.917969 171.199219 C 123.503906 170.609375 123.035156 170.070312 122.515625 169.574219 C 121.992188 169.078125 121.429688 168.636719 120.820312 168.253906 C 120.214844 167.871094 119.574219 167.546875 118.902344 167.289062 C 118.234375 167.03125 117.542969 166.84375 116.835938 166.71875 C 116.128906 166.597656 115.414062 166.546875 114.695312 166.566406 C 112.097656 166.566406 109.5 166.566406 106.902344 166.566406 Z M 103.710938 166.519531 " fill-opacity="1" fill-rule="nonzero"/><path fill="#ff5757" d="M 137.800781 202.765625 L 137.800781 199.953125 C 137.800781 190.722656 137.800781 181.496094 137.800781 172.292969 C 137.78125 171.484375 137.917969 170.707031 138.21875 169.960938 C 138.519531 169.210938 138.953125 168.554688 139.523438 167.984375 C 139.875 167.519531 140.285156 167.105469 140.746094 166.746094 C 141.207031 166.390625 141.710938 166.101562 142.25 165.878906 C 142.789062 165.65625 143.351562 165.507812 143.929688 165.433594 C 144.507812 165.363281 145.089844 165.371094 145.667969 165.453125 C 146.714844 165.523438 147.761719 165.523438 148.808594 165.453125 C 148.808594 166.28125 148.972656 166.898438 148.972656 167.511719 C 148.972656 177.1875 148.972656 186.890625 148.972656 196.566406 C 149.007812 197.195312 148.902344 197.800781 148.664062 198.378906 C 148.421875 198.960938 148.070312 199.460938 147.605469 199.878906 C 144.4375 202.957031 144.460938 202.980469 140.019531 202.933594 C 139.382812 202.886719 138.816406 202.8125 137.800781 202.765625 Z M 143.46875 166.660156 L 143.46875 197.066406 L 147.675781 197.066406 L 147.675781 166.660156 Z M 143.46875 166.660156 " fill-opacity="1" fill-rule="nonzero"/><path fill="#a62525" d="M 167.445312 170.871094 L 167.445312 166.636719 L 188.445312 166.636719 C 187.078125 169.757812 185.304688 172.503906 183.722656 175.367188 C 182.140625 178.230469 180.582031 181 179 183.839844 C 177.414062 186.675781 175.808594 189.585938 173.964844 192.851562 C 179.046875 193.066406 183.699219 192.851562 188.496094 192.996094 L 188.496094 196.851562 C 181.261719 197.433594 174.027344 197.511719 166.785156 197.089844 C 167.988281 194.863281 169.148438 192.757812 170.28125 190.652344 L 173.964844 184.027344 L 177.511719 177.617188 C 178.691406 175.507812 179.871094 173.378906 181.21875 170.871094 Z M 167.445312 170.871094 " fill-opacity="1" fill-rule="nonzero"/><path fill="#a62525" d="M 212.046875 192.996094 L 226.785156 192.996094 L 226.785156 196.851562 C 219.597656 197.441406 212.398438 197.53125 205.195312 197.113281 C 205.863281 195.285156 206.730469 193.558594 207.792969 191.929688 C 208.714844 190.179688 209.707031 188.476562 210.652344 186.75 C 211.597656 185.019531 212.566406 183.292969 213.535156 181.589844 L 216.394531 176.410156 L 219.34375 171.039062 C 217.039062 170.742188 214.722656 170.65625 212.402344 170.777344 C 210.039062 170.777344 207.886719 170.777344 205.527344 170.777344 L 205.527344 166.660156 L 226.785156 166.660156 C 225.226562 169.757812 223.550781 172.574219 222.0625 175.4375 C 220.574219 178.300781 218.898438 181.070312 217.335938 183.910156 C 215.777344 186.75 213.914062 189.636719 212.046875 192.996094 Z M 212.046875 192.996094 " fill-opacity="1" fill-rule="nonzero"/><path fill="#a62525" d="M 274.671875 197.207031 L 269.804688 197.207031 C 269.070312 195.90625 268.269531 194.582031 267.558594 193.207031 C 267.367188 192.765625 267.070312 192.417969 266.664062 192.160156 C 266.261719 191.902344 265.820312 191.777344 265.339844 191.789062 C 260.140625 191.789062 254.945312 191.789062 249.75 191.789062 C 249.515625 191.761719 249.285156 191.777344 249.054688 191.832031 C 248.828125 191.882812 248.613281 191.972656 248.414062 192.09375 C 248.214844 192.21875 248.042969 192.375 247.894531 192.554688 C 247.746094 192.738281 247.632812 192.941406 247.550781 193.160156 C 247.433594 193.46875 247.242188 193.730469 247.101562 194.011719 C 245.117188 197.632812 245.117188 197.632812 240.535156 197.042969 L 257.496094 165.925781 Z M 250.882812 187.128906 C 255.308594 187.628906 259.726562 187.558594 264.132812 186.914062 L 257.496094 174.894531 C 255.132812 179.175781 253.101562 183.011719 250.882812 187.128906 Z M 250.882812 187.128906 " fill-opacity="1" fill-rule="nonzero"/><path fill="#a62525" d="M 103.710938 166.519531 L 106.902344 166.519531 C 109.5 166.519531 112.097656 166.519531 114.695312 166.519531 C 115.414062 166.5 116.128906 166.550781 116.835938 166.671875 C 117.542969 166.796875 118.234375 166.984375 118.902344 167.242188 C 119.574219 167.5 120.214844 167.824219 120.820312 168.207031 C 121.429688 168.589844 121.992188 169.03125 122.515625 169.527344 C 123.035156 170.023438 123.503906 170.5625 123.917969 171.152344 C 124.332031 171.738281 124.683594 172.359375 124.976562 173.019531 C 125.269531 173.675781 125.492188 174.355469 125.652344 175.058594 C 125.8125 175.757812 125.898438 176.46875 125.917969 177.1875 C 125.9375 177.910156 125.886719 178.621094 125.761719 179.332031 C 125.640625 180.042969 125.453125 180.730469 125.195312 181.402344 C 124.9375 182.074219 124.617188 182.714844 124.230469 183.324219 C 123.847656 183.933594 123.410156 184.496094 122.914062 185.019531 C 122.421875 185.539062 121.878906 186.007812 121.292969 186.425781 C 120.707031 186.839844 120.085938 187.191406 119.429688 187.484375 C 118.773438 187.777344 118.09375 188.003906 117.390625 188.164062 C 116.691406 188.320312 115.980469 188.410156 115.265625 188.429688 C 112.902344 188.570312 110.730469 188.429688 108.175781 188.429688 L 108.175781 197.015625 L 103.710938 197.015625 Z M 108.105469 184.097656 C 110.703125 184.097656 112.832031 184.097656 115.191406 184.097656 C 115.597656 184.078125 115.996094 184.019531 116.390625 183.925781 C 116.78125 183.832031 117.164062 183.703125 117.53125 183.539062 C 117.902344 183.375 118.253906 183.175781 118.585938 182.949219 C 118.921875 182.71875 119.230469 182.460938 119.515625 182.175781 C 119.804688 181.890625 120.0625 181.582031 120.292969 181.246094 C 120.523438 180.914062 120.71875 180.5625 120.882812 180.191406 C 121.050781 179.824219 121.179688 179.441406 121.277344 179.046875 C 121.371094 178.65625 121.429688 178.257812 121.453125 177.851562 C 121.480469 177.46875 121.472656 177.082031 121.429688 176.699219 C 121.386719 176.316406 121.308594 175.941406 121.199219 175.570312 C 121.089844 175.199219 120.949219 174.84375 120.773438 174.5 C 120.601562 174.15625 120.398438 173.828125 120.164062 173.523438 C 119.929688 173.214844 119.671875 172.929688 119.390625 172.667969 C 119.105469 172.410156 118.800781 172.175781 118.476562 171.96875 C 118.148438 171.761719 117.808594 171.585938 117.453125 171.441406 C 117.09375 171.296875 116.726562 171.1875 116.351562 171.109375 C 113.632812 170.71875 110.910156 170.664062 108.175781 170.941406 L 108.175781 184.121094 Z M 108.105469 184.097656 " fill-opacity="1" fill-rule="nonzero"/><path fill="#a62525" d="M 143.46875 166.660156 L 147.675781 166.660156 L 147.675781 197.066406 L 143.46875 197.066406 Z M 143.46875 166.660156 " fill-opacity="1" fill-rule="nonzero"/><path fill="#ff5757" d="M 250.882812 187.128906 C 253.101562 183.011719 255.203125 179.175781 257.519531 174.894531 L 264.132812 186.914062 C 259.726562 187.558594 255.308594 187.628906 250.882812 187.128906 Z M 254.117188 183.789062 L 252.84375 186.15625 L 255.394531 186.015625 Z M 254.117188 183.789062 " fill-opacity="1" fill-rule="nonzero"/><path fill="#ff5757" d="M 108.105469 184.097656 L 108.105469 170.917969 C 110.835938 170.640625 113.5625 170.695312 116.28125 171.085938 C 116.65625 171.164062 117.023438 171.273438 117.382812 171.417969 C 117.738281 171.5625 118.078125 171.738281 118.40625 171.945312 C 118.730469 172.152344 119.035156 172.386719 119.320312 172.644531 C 119.601562 172.90625 119.859375 173.191406 120.09375 173.5 C 120.324219 173.804688 120.527344 174.132812 120.703125 174.476562 C 120.878906 174.820312 121.019531 175.175781 121.128906 175.546875 C 121.238281 175.914062 121.316406 176.292969 121.359375 176.675781 C 121.402344 177.058594 121.410156 177.445312 121.382812 177.828125 C 121.359375 178.234375 121.300781 178.632812 121.207031 179.023438 C 121.109375 179.417969 120.980469 179.800781 120.8125 180.167969 C 120.648438 180.539062 120.449219 180.890625 120.222656 181.222656 C 119.992188 181.558594 119.734375 181.867188 119.445312 182.152344 C 119.160156 182.4375 118.851562 182.695312 118.515625 182.925781 C 118.183594 183.152344 117.832031 183.351562 117.460938 183.515625 C 117.09375 183.679688 116.710938 183.808594 116.316406 183.902344 C 115.925781 183.996094 115.527344 184.054688 115.121094 184.074219 C 112.925781 184.167969 110.703125 184.097656 108.105469 184.097656 Z M 109.40625 182.703125 L 115.570312 182.703125 C 115.621094 182.492188 115.65625 182.277344 115.679688 182.0625 C 115.699219 181.847656 115.710938 181.632812 115.703125 181.417969 C 115.699219 181.199219 115.679688 180.984375 115.644531 180.773438 C 115.613281 180.558594 115.566406 180.347656 115.503906 180.140625 C 115.445312 179.933594 115.371094 179.730469 115.285156 179.53125 C 115.199219 179.332031 115.101562 179.140625 114.988281 178.957031 C 114.878906 178.769531 114.757812 178.59375 114.621094 178.421875 C 114.488281 178.253906 114.34375 178.09375 114.191406 177.941406 C 114.035156 177.789062 113.871094 177.648438 113.699219 177.519531 C 113.527344 177.390625 113.347656 177.269531 113.160156 177.164062 C 112.972656 177.058594 112.777344 176.960938 112.578125 176.878906 C 112.378906 176.800781 112.171875 176.730469 111.964844 176.675781 C 111.757812 176.621094 111.542969 176.578125 111.332031 176.550781 C 111.117188 176.519531 110.902344 176.507812 110.6875 176.507812 C 110.46875 176.503906 110.253906 176.519531 110.039062 176.546875 C 109.828125 176.574219 109.613281 176.613281 109.40625 176.667969 Z M 109.40625 182.703125 " fill-opacity="1" fill-rule="nonzero"/></svg>