<svg xmlns="http://www.w3.org/2000/svg" xmlns:xlink="http://www.w3.org/1999/xlink" width="500" zoomAndPan="magnify" viewBox="0 0 375 374.999991" height="500" preserveAspectRatio="xMidYMid meet" version="1.0"><defs><clipPath id="id1"><path d="M 19 26.421875 L 356 26.421875 L 356 348.921875 L 19 348.921875 Z M 19 26.421875 " clip-rule="nonzero"/></clipPath></defs><g clip-path="url(#id1)"><path fill="#ffffff" d="M 29 26.503906 C 29.519531 26.511719 30.050781 26.558594 30.5625 26.648438 L 30.589844 26.648438 L 82.097656 35.457031 C 85.375 36.019531 88.121094 38.265625 89.332031 41.367188 C 89.332031 41.375 89.332031 41.386719 89.332031 41.394531 L 113.234375 102.75 L 346.5 108.574219 C 349.179688 108.640625 351.699219 109.851562 353.441406 111.875 C 355.1875 113.898438 356.027344 116.585938 355.699219 119.261719 L 342.824219 225.894531 C 342.292969 230.367188 338.601562 233.914062 334.113281 234.265625 L 167.816406 247.503906 L 134.859375 273.460938 C 134.820312 273.488281 134.78125 273.519531 134.742188 273.546875 C 134.707031 273.570312 134.664062 273.582031 134.625 273.605469 C 134.589844 273.628906 134.550781 273.664062 134.511719 273.691406 C 128.496094 278.1875 127.003906 284.308594 127.855469 287.710938 C 128.339844 289.652344 129.078125 291.074219 130.835938 292.171875 C 132.59375 293.269531 135.625 294.066406 140.816406 293.765625 C 140.835938 293.765625 140.855469 293.765625 140.875 293.765625 C 141.042969 293.761719 141.230469 293.761719 141.398438 293.765625 L 141.484375 293.765625 L 339.820312 294.347656 L 339.847656 294.347656 C 345.0625 294.3125 349.449219 298.6875 349.425781 303.90625 C 349.40625 309.121094 345.003906 313.480469 339.792969 313.40625 L 339.761719 313.40625 L 325.265625 313.378906 C 330.652344 316.816406 334.265625 322.828125 334.265625 329.65625 C 334.265625 340.28125 325.574219 348.980469 314.964844 348.980469 C 304.351562 348.980469 295.664062 340.28125 295.664062 329.65625 C 295.664062 322.792969 299.285156 316.71875 304.71875 313.289062 L 141.394531 312.828125 C 147.28125 316.148438 151.292969 322.453125 151.292969 329.65625 C 151.292969 340.28125 142.601562 348.980469 131.992188 348.980469 C 121.378906 348.980469 112.691406 340.28125 112.691406 329.65625 C 112.691406 320.433594 119.238281 312.65625 127.910156 310.769531 C 119.710938 307.867188 113.410156 301.875 109.507812 292.722656 C 109.449219 292.609375 109.402344 292.496094 109.363281 292.375 C 106.371094 280.402344 111.675781 267.382812 122.617188 258.917969 C 122.644531 258.886719 122.671875 258.859375 122.703125 258.828125 C 122.730469 258.808594 122.734375 258.761719 122.761719 258.742188 C 122.855469 258.625 122.960938 258.519531 123.078125 258.425781 L 146.429688 240.085938 L 73.597656 53.328125 L 27.382812 45.445312 L 27.355469 45.445312 C 22.5 44.664062 18.949219 40.136719 19.371094 35.222656 C 19.789062 30.296875 24.074219 26.433594 29.003906 26.5 Z M 120.265625 117.464844 L 133.695312 151.9375 L 151.199219 151.9375 L 151.199219 118.25 Z M 157.886719 118.421875 L 157.886719 151.9375 L 190.207031 151.9375 L 190.207031 119.234375 Z M 196.890625 119.378906 L 196.890625 151.9375 L 229.214844 151.9375 L 229.214844 120.1875 Z M 235.898438 120.363281 L 235.898438 151.9375 L 268.222656 151.9375 L 268.222656 121.171875 Z M 274.90625 121.347656 L 274.90625 151.9375 L 307.226562 151.9375 L 307.226562 122.160156 Z M 313.914062 122.304688 L 313.914062 151.9375 L 337.613281 151.9375 L 341.113281 123 Z M 336.800781 158.601562 L 313.914062 158.601562 L 313.914062 188.871094 L 333.15625 188.871094 Z M 307.226562 158.601562 L 274.90625 158.601562 L 274.90625 188.871094 L 307.226562 188.871094 Z M 268.222656 158.601562 L 235.898438 158.601562 L 235.898438 188.871094 L 268.222656 188.871094 Z M 229.214844 158.601562 L 196.890625 158.601562 L 196.890625 188.871094 L 229.214844 188.871094 Z M 190.207031 158.601562 L 157.886719 158.601562 L 157.886719 188.871094 L 190.207031 188.871094 Z M 151.199219 158.601562 L 136.269531 158.601562 L 148.074219 188.871094 L 151.199219 188.871094 Z M 332.339844 195.535156 L 313.910156 195.535156 L 313.910156 217.261719 L 329.882812 215.988281 Z M 307.222656 195.535156 L 274.902344 195.535156 L 274.902344 220.359375 L 307.222656 217.78125 Z M 268.214844 195.535156 L 235.894531 195.535156 L 235.894531 223.460938 L 268.214844 220.910156 Z M 229.210938 195.535156 L 196.886719 195.535156 L 196.886719 226.589844 L 229.210938 224.011719 Z M 190.203125 195.535156 L 157.878906 195.535156 L 157.878906 213.960938 L 164.015625 229.691406 C 164.8125 229.304688 165.679688 229.066406 166.5625 228.996094 L 190.203125 227.113281 Z M 151.195312 195.535156 L 150.703125 195.535156 L 151.195312 196.898438 Z M 314.945312 318.304688 C 308.640625 318.304688 303.601562 323.347656 303.601562 329.660156 C 303.601562 335.976562 308.640625 340.988281 314.945312 340.988281 C 321.253906 340.988281 326.289062 335.976562 326.289062 329.660156 C 326.289062 323.347656 321.253906 318.304688 314.945312 318.304688 Z M 131.980469 318.304688 C 125.675781 318.304688 120.640625 323.347656 120.640625 329.660156 C 120.640625 335.976562 125.675781 340.988281 131.980469 340.988281 C 138.289062 340.988281 143.324219 335.976562 143.324219 329.660156 C 143.324219 323.347656 138.289062 318.304688 131.980469 318.304688 Z M 314.945312 323.695312 C 318.371094 323.695312 321.109375 326.433594 321.109375 329.863281 C 321.109375 333.292969 318.371094 336.007812 314.945312 336.007812 C 311.519531 336.007812 308.78125 333.292969 308.78125 329.863281 C 308.78125 326.433594 311.519531 323.695312 314.945312 323.695312 Z M 131.980469 323.695312 C 135.410156 323.695312 138.144531 326.433594 138.144531 329.863281 C 138.144531 333.292969 135.410156 336.007812 131.980469 336.007812 C 128.554688 336.007812 125.820312 333.292969 125.820312 329.863281 C 125.820312 326.433594 128.554688 323.695312 131.980469 323.695312 Z M 131.980469 323.695312 " fill-opacity="1" fill-rule="nonzero"/></g></svg>