<svg xmlns="http://www.w3.org/2000/svg" xmlns:xlink="http://www.w3.org/1999/xlink" width="500" zoomAndPan="magnify" viewBox="0 0 375 374.999991" height="500" preserveAspectRatio="xMidYMid meet" version="1.0"><defs><clipPath id="026fe0e6f7"><path d="M 13.136719 13.136719 L 361.886719 13.136719 L 361.886719 361.886719 L 13.136719 361.886719 Z M 13.136719 13.136719 " clip-rule="nonzero"/></clipPath><clipPath id="ba9475cb5c"><path d="M 19.511719 19.511719 L 355.511719 19.511719 L 355.511719 355.511719 L 19.511719 355.511719 Z M 19.511719 19.511719 " clip-rule="nonzero"/></clipPath><clipPath id="b6e2eea475"><path d="M 171 81.230469 L 325 81.230469 L 325 160 L 171 160 Z M 171 81.230469 " clip-rule="nonzero"/></clipPath></defs><g clip-path="url(#026fe0e6f7)"><path fill="#ff5757" d="M 187.511719 13.136719 C 91.207031 13.136719 13.136719 91.207031 13.136719 187.511719 C 13.136719 283.816406 91.207031 361.886719 187.511719 361.886719 C 283.816406 361.886719 361.886719 283.816406 361.886719 187.511719 C 361.886719 91.207031 283.816406 13.136719 187.511719 13.136719 " fill-opacity="1" fill-rule="nonzero"/></g><g clip-path="url(#ba9475cb5c)"><path fill="#ffffff" d="M 187.511719 19.511719 C 94.726562 19.511719 19.511719 94.726562 19.511719 187.511719 C 19.511719 280.296875 94.726562 355.511719 187.511719 355.511719 C 280.296875 355.511719 355.511719 280.296875 355.511719 187.511719 C 355.511719 94.726562 280.296875 19.511719 187.511719 19.511719 " fill-opacity="1" fill-rule="nonzero"/></g><path fill="#ff5757" d="M 161.253906 183.832031 C 157.984375 175.878906 156.910156 167.484375 156.316406 159.003906 C 156.097656 155.886719 155.90625 152.753906 155.898438 149.632812 C 155.886719 146.941406 156.625 146.457031 159.316406 146.871094 C 159.949219 146.96875 160.59375 147.039062 161.234375 147.027344 C 163.195312 146.992188 164.460938 147.804688 164.804688 149.820312 C 164.914062 150.460938 165.039062 151.085938 165.9375 151.457031 C 167.125 149.46875 167.136719 147.046875 168.222656 145.011719 C 168.878906 143.769531 169.546875 143.183594 170.941406 143.160156 C 174.4375 143.097656 177.769531 144.027344 181.160156 144.652344 C 181.390625 144.695312 181.746094 144.738281 181.820312 144.890625 C 184.046875 149.378906 188.496094 146.605469 191.703125 147.902344 C 192.902344 148.386719 193.75 147.320312 194.59375 146.558594 C 198.175781 143.324219 202.121094 141.183594 207.210938 142.113281 C 210.964844 142.796875 213.984375 145.851562 214.453125 149.65625 C 214.515625 150.171875 214.234375 150.761719 214.828125 151.300781 C 215.082031 150.585938 215.277344 149.921875 215.554688 149.292969 C 216.15625 147.9375 215.707031 145.738281 217.980469 145.648438 C 220.792969 145.539062 223.839844 144.742188 225.992188 147.546875 C 229.464844 152.074219 231.316406 157.351562 232.703125 162.769531 C 235.121094 172.207031 235.371094 181.902344 234.035156 191.429688 C 232.414062 202.96875 229.371094 214.199219 220.914062 223.363281 C 224.84375 224.863281 228.464844 226.636719 231.730469 229.042969 C 233.886719 230.636719 234.238281 232.078125 233.097656 233.941406 C 232.539062 234.855469 231.980469 235.148438 230.949219 234.632812 C 225.496094 231.921875 219.808594 229.679688 213.871094 228.492188 C 202.0625 226.132812 190.335938 222.902344 178.074219 223.933594 C 176.71875 224.046875 175.851562 224.3125 175.363281 225.707031 C 171.609375 236.4375 163.753906 243.253906 153.527344 247.234375 C 143.144531 251.273438 132.386719 251.933594 121.90625 247.460938 C 116.625 245.203125 112.066406 241.636719 109.992188 235.960938 C 107.539062 229.242188 109.226562 222.953125 113.121094 217.316406 C 118.671875 209.28125 126.34375 204.128906 135.707031 201.25 C 145.933594 198.105469 156.21875 198.257812 166.617188 199.867188 C 177.207031 201.511719 186.855469 205.601562 195.878906 211.230469 C 198.996094 213.175781 201.917969 215.429688 204.558594 218.019531 C 205.667969 219.105469 206.949219 219.609375 208.503906 220.011719 C 210.832031 220.609375 212.183594 219.824219 213.425781 218.121094 C 216.578125 213.789062 218.417969 208.894531 219.992188 203.804688 C 221.882812 197.679688 222.472656 191.394531 222.652344 185.09375 C 222.863281 177.683594 222.601562 170.257812 219.445312 162.730469 C 217.902344 165.367188 216.773438 167.65625 215.320312 169.722656 C 212.28125 174.046875 209.125 178.289062 204.386719 181.015625 C 200.335938 183.347656 195.984375 182.863281 192.8125 179.425781 C 188.105469 174.328125 187.183594 168.101562 187.75 161.496094 C 187.992188 158.699219 188.839844 156.023438 189.683594 153.148438 C 189.746094 152.957031 189.722656 152.992188 189.722656 152.992188 C 186.234375 153.488281 182.894531 152.238281 179.445312 152.085938 C 177.03125 151.976562 176.351562 153.191406 175.953125 155.074219 C 174.207031 163.304688 174.066406 171.617188 174.757812 179.96875 C 174.765625 180.046875 174.773438 180.128906 174.777344 180.207031 C 175.15625 185.257812 174.980469 185.441406 169.871094 185.4375 C 168.425781 185.433594 166.980469 185.429688 165.535156 185.441406 C 164.894531 185.449219 164.292969 185.5 163.730469 185.941406 C 158.910156 189.742188 154.460938 189.003906 151.027344 183.90625 C 148.597656 180.292969 147.796875 176.128906 146.851562 171.699219 C 145.769531 173.03125 145.292969 174.503906 145.160156 175.859375 C 144.804688 179.519531 143.605469 183.089844 144.007812 186.835938 C 144.285156 189.441406 142.980469 190.789062 140.546875 191.839844 C 134.574219 194.425781 130.953125 193.128906 128.402344 186.523438 C 127.671875 184.636719 127.304688 182.6875 126.679688 180.800781 C 126.382812 179.90625 126.5625 178.347656 125.109375 178.472656 C 123.484375 178.617188 121.523438 178.09375 120.574219 180.320312 C 117.648438 187.199219 113.183594 193.019531 107.828125 198.164062 C 100.902344 204.816406 93.273438 210.390625 84.03125 213.46875 C 77.453125 215.664062 70.691406 216.6875 63.921875 215.179688 C 57.730469 213.800781 52 209.84375 52.066406 201.375 C 52.132812 192.550781 56.402344 186.035156 62.320312 180.191406 C 64.835938 177.710938 67.640625 175.566406 70.695312 173.804688 C 72.066406 173.015625 72.515625 172.070312 72.503906 170.519531 C 72.433594 161.285156 72.449219 152.050781 72.453125 142.816406 C 72.453125 138.316406 76.589844 135.464844 80.820312 137 C 82.195312 137.496094 81.859375 138.664062 81.875 139.644531 C 82.042969 148.472656 82.175781 157.304688 82.324219 166.132812 C 82.332031 166.605469 82.390625 167.078125 82.457031 168.003906 C 92.097656 165.980469 101.554688 166.078125 110.613281 170.101562 C 112.988281 164.273438 112.308594 158.234375 108.246094 155.894531 C 104.203125 153.566406 99.429688 154.695312 97.128906 158.898438 C 96.296875 160.417969 95.5 160.738281 93.929688 160.433594 C 92.132812 160.082031 90.308594 159.804688 88.445312 159.835938 C 86.800781 159.863281 85.984375 159.28125 87.039062 157.472656 C 90.152344 152.117188 91.867188 146.246094 92.042969 140.121094 C 92.210938 134.242188 89.773438 127.660156 83.535156 125.628906 C 80.015625 124.484375 76.46875 125.117188 73.160156 126.320312 C 65.160156 129.230469 59.085938 134.523438 55.355469 142.210938 C 53.628906 145.765625 52.507812 149.523438 54.40625 153.53125 C 57.664062 160.410156 64.308594 161.570312 69.46875 156.066406 C 69.785156 155.726562 70 155.28125 70.757812 155.195312 C 71.253906 157.421875 70.734375 159.433594 69.863281 161.382812 C 68.214844 165.058594 65.746094 167.828125 62.042969 169.746094 C 56.140625 172.796875 49.152344 168.488281 46.511719 164.199219 C 42.972656 158.441406 42.589844 152.1875 44.136719 145.875 C 47.425781 132.429688 56.050781 123.230469 68.347656 117.5625 C 75.304688 114.351562 82.714844 113.613281 89.972656 117.140625 C 96.488281 120.308594 100.082031 125.730469 101.648438 132.644531 C 102.535156 136.554688 101.996094 140.457031 101.519531 144.582031 C 101.484375 144.804688 101.488281 144.773438 101.488281 144.773438 C 102.269531 144.601562 103.113281 144.570312 103.820312 144.242188 C 111.167969 140.816406 120.519531 145.832031 122.894531 154.464844 C 124.476562 160.210938 124.421875 165.980469 123.433594 171.792969 C 123.328125 172.414062 123.121094 173.050781 123.628906 173.710938 C 125.265625 174.011719 125.96875 173.253906 125.90625 171.625 C 125.722656 166.5625 125.996094 161.558594 127.3125 156.617188 C 127.828125 154.675781 128.492188 152.785156 129.296875 150.996094 C 130.5625 148.171875 134.886719 147.035156 137.648438 148.570312 C 139.171875 149.421875 139.835938 150.339844 139.179688 152.445312 C 136.964844 159.527344 136.523438 166.796875 138.097656 174.152344 C 138.21875 169.859375 139.726562 165.886719 140.933594 161.878906 C 142.480469 156.757812 144.820312 151.929688 147.449219 147.273438 C 148.40625 145.582031 151.820312 144.867188 153.507812 145.730469 C 154.515625 146.25 154.382812 147.164062 154.246094 148.042969 C 153.457031 153.0625 153.628906 158.125 153.773438 163.164062 C 153.9375 168.9375 154.855469 174.605469 157.597656 179.816406 C 158.417969 181.375 159.21875 182.964844 161.195312 183.863281 C 161.535156 184.097656 161.648438 184.203125 161.777344 184.304688 C 161.789062 184.308594 161.753906 184.3125 161.675781 184.230469 C 161.488281 184.03125 161.375 183.925781 161.253906 183.832031 Z M 208.65625 161.761719 C 207.398438 162.015625 206.132812 162.285156 205.074219 160.976562 C 206.523438 157.992188 208.011719 154.960938 205.890625 151.609375 C 201.132812 155.03125 197.636719 169.039062 200.824219 172.402344 C 204.167969 169.277344 206.878906 165.699219 208.988281 161.617188 C 208.988281 161.617188 208.996094 161.65625 208.65625 161.761719 Z M 155.335938 238.855469 C 161.050781 235.933594 165.117188 231.679688 166.742188 225.203125 C 165.007812 224.761719 163.597656 224.925781 162.214844 225.390625 C 159.414062 226.328125 156.59375 227.21875 153.851562 228.300781 C 152.796875 228.71875 152.089844 228.789062 151.324219 227.890625 C 149.039062 225.203125 148.613281 220.585938 150.460938 217.511719 C 154.378906 210.988281 160.710938 209.097656 167.707031 209.03125 C 171.441406 209 175.035156 212.421875 175.804688 216.136719 C 176.117188 217.625 176.707031 217.960938 178.066406 217.804688 C 182.628906 217.292969 187.195312 217.324219 191.757812 217.832031 C 192.71875 217.9375 193.699219 217.847656 194.839844 217.847656 C 194.089844 216.644531 193.230469 216.039062 192.367188 215.472656 C 179.332031 206.921875 165.054688 203.253906 149.511719 204.691406 C 141.3125 205.449219 133.625 207.710938 127.253906 213.183594 C 123.820312 216.132812 121.128906 219.816406 121.597656 224.554688 C 122 228.59375 123.941406 232.222656 127.179688 234.871094 C 135.613281 241.769531 144.925781 243.085938 155.335938 238.855469 Z M 95.890625 172.820312 C 93.0625 172.5625 90.289062 173.117188 87.515625 173.449219 C 82.867188 174 82.328125 174.691406 82.390625 179.351562 C 82.453125 183.519531 82.570312 187.691406 82.703125 191.863281 C 82.773438 194.027344 81.535156 195.066406 79.644531 195.527344 C 78.714844 195.753906 77.75 195.855469 76.796875 195.953125 C 73.605469 196.285156 72.796875 195.535156 72.84375 192.382812 C 72.863281 190.9375 72.886719 189.492188 72.851562 188.046875 C 72.800781 186.175781 73.085938 184.25 72.234375 182.417969 C 67.238281 185.28125 62.742188 193.820312 64.265625 199.328125 C 65.007812 202.007812 66.550781 203.691406 69.011719 204.949219 C 73.929688 207.457031 78.632812 206.304688 83.089844 204.117188 C 91.398438 200.039062 97.746094 193.621094 103.128906 186.210938 C 105.410156 183.066406 107.339844 179.695312 108.875 176.15625 C 106.039062 174.128906 101.769531 173.027344 95.890625 172.820312 Z M 158.949219 220.949219 C 160.566406 221.296875 161.746094 219.953125 163.253906 219.839844 C 164.03125 219.78125 165.125 219.875 165.269531 218.941406 C 165.460938 217.710938 164.34375 217.019531 163.492188 216.335938 C 162.816406 215.796875 162.007812 215.078125 161.164062 215.886719 C 159.804688 217.1875 158.222656 218.441406 158.949219 220.949219 Z M 158.949219 220.949219 " fill-opacity="1" fill-rule="nonzero"/><path fill="#ff5757" d="M 276.765625 214.328125 C 274.054688 207.925781 272.570312 201.449219 271.914062 194.695312 C 271.304688 188.417969 271.476562 182.175781 272.070312 175.957031 C 272.542969 170.957031 273.707031 166.027344 275.144531 161.191406 C 275.730469 159.226562 276.34375 157.269531 277.050781 154.964844 C 273.835938 156.054688 271.167969 158.089844 267.914062 155.996094 C 266.601562 160.925781 265.140625 165.484375 262.621094 169.558594 C 260.078125 173.667969 257.3125 177.601562 252.035156 178.640625 C 246.636719 179.699219 240.183594 177 237.261719 172.3125 C 231.511719 163.085938 233.460938 150.097656 241.804688 143.058594 C 245.761719 139.722656 252.023438 138.71875 255.625 143.035156 C 258.273438 146.210938 257.984375 149.933594 257.105469 153.515625 C 256.375 156.472656 254.53125 158.949219 252.339844 161.160156 C 250.261719 163.253906 247.769531 163.820312 244.996094 163.441406 C 244.921875 163.988281 244.820312 164.238281 244.871094 164.449219 C 245.507812 167.109375 246.019531 170.578125 248.636719 171.25 C 251.171875 171.898438 253.074219 168.988281 254.78125 166.96875 C 258.953125 162.042969 260.609375 156.019531 262.253906 149.992188 C 262.433594 149.335938 262.386719 148.503906 262.148438 147.859375 C 260.710938 143.933594 261.636719 140.101562 262.5 136.261719 C 263.007812 134.007812 264.527344 132.875 266.730469 132.652344 C 268.9375 132.429688 272.117188 134.132812 272.742188 135.871094 C 273.339844 137.527344 272.195312 138.917969 271.808594 140.410156 C 271.28125 142.445312 271.015625 144.429688 271.535156 146.816406 C 275.253906 143.769531 277.769531 140.265625 279.109375 135.984375 C 279.957031 133.269531 281.417969 131.957031 284.277344 132.257812 C 287.46875 132.59375 290.566406 133.476562 293.566406 134.609375 C 294.847656 135.09375 295.082031 136.109375 294.617188 137.375 C 293.621094 140.070312 292.65625 142.78125 291.714844 145.496094 C 288.316406 155.292969 286.148438 165.347656 285.820312 175.730469 C 285.578125 183.417969 285.425781 191.136719 287.289062 198.695312 C 289.003906 205.65625 291.210938 212.527344 296.757812 217.417969 C 303.800781 223.632812 310.414062 222.875 315.386719 214.011719 C 319.042969 207.496094 319.8125 200.566406 317.722656 193.363281 C 317.230469 191.652344 316.355469 190.082031 315.257812 188.722656 C 313.089844 186.039062 309.117188 186.347656 306.972656 189.277344 C 306.457031 189.980469 305.992188 190.777344 305.738281 191.601562 C 305.394531 192.722656 304.777344 193.25 303.636719 193.042969 C 302.429688 192.824219 301.960938 192.042969 301.859375 190.832031 C 301.527344 186.789062 303.773438 183.394531 307.535156 181.742188 C 315.941406 178.054688 324.769531 183.027344 327.84375 191.476562 C 332.089844 203.125 326.257812 216.90625 317.613281 224.285156 C 312.867188 228.34375 307.578125 231.113281 301.28125 231.65625 C 292.441406 232.421875 285.855469 228.570312 280.789062 221.589844 C 279.1875 219.375 278.019531 216.933594 276.765625 214.328125 Z M 248.171875 155.203125 C 249.058594 153.398438 250.273438 151.621094 248.597656 149.425781 C 246.207031 151.570312 245.304688 154.175781 244.976562 157.328125 C 246.246094 156.816406 247.28125 156.441406 248.171875 155.203125 Z M 248.171875 155.203125 " fill-opacity="1" fill-rule="nonzero"/><path fill="#ff5757" d="M 176.425781 282.320312 C 183.566406 279.921875 190.425781 277.34375 197.152344 274.371094 C 214.160156 266.851562 229.996094 257.519531 243.792969 244.925781 C 244.585938 244.207031 245.445312 243.710938 246.605469 243.859375 C 248.589844 244.109375 250.585938 244.261719 252.574219 244.488281 C 253.507812 244.589844 254.292969 244.96875 254.523438 245.988281 C 254.796875 247.183594 253.808594 247.246094 253.109375 247.769531 C 250.035156 250.0625 247.167969 252.621094 244.113281 254.9375 C 232.296875 263.914062 219.585938 271.351562 205.957031 277.292969 C 196.488281 281.421875 186.886719 285.164062 176.929688 287.847656 C 168.203125 290.199219 159.269531 291.554688 150.257812 292.445312 C 139.625 293.496094 129.175781 292.507812 118.6875 290.769531 C 111.21875 289.53125 103.976562 287.699219 97.078125 284.679688 C 87.59375 280.527344 79.875 274.308594 75.066406 264.867188 C 69.964844 254.851562 72.460938 245.792969 78.566406 237.277344 C 80.414062 234.699219 82.609375 232.3125 85.296875 230.476562 C 86.691406 229.519531 88.097656 229.078125 89.808594 229.417969 C 91.375 229.726562 92.984375 229.816406 94.582031 229.953125 C 95.484375 230.03125 96.296875 230.253906 97.042969 230.804688 C 97.554688 231.1875 97.785156 231.632812 97.667969 232.242188 C 97.535156 232.9375 96.980469 233.152344 96.398438 233.082031 C 94.398438 232.839844 93.164062 234.042969 91.8125 235.238281 C 86.988281 239.515625 83.714844 244.761719 82.222656 250.984375 C 80.929688 256.371094 82.28125 261.429688 85.054688 266.15625 C 90.808594 275.976562 99.703125 281.597656 110.101562 285.527344 C 123.628906 290.648438 137.351562 290.054688 151.296875 288.074219 C 157.644531 287.175781 163.863281 285.785156 170.082031 284.34375 C 172.175781 283.855469 174.195312 283.054688 176.425781 282.320312 Z M 176.425781 282.320312 " fill-opacity="1" fill-rule="nonzero"/><g clip-path="url(#b6e2eea475)"><path fill="#ff5757" d="M 175.53125 132.304688 C 174.058594 132.308594 172.761719 132.6875 171.457031 131.964844 C 171.167969 129.199219 173.023438 127.289062 174.457031 125.40625 C 181.6875 115.875 191.160156 108.980469 201.324219 102.886719 C 209.582031 97.933594 218.265625 93.917969 227.296875 90.644531 C 235.632812 87.621094 244.128906 85.167969 252.925781 83.808594 C 261.007812 82.558594 269.089844 81.238281 277.289062 81.535156 C 290.5 82.007812 302.722656 85.421875 312.851562 94.433594 C 322.820312 103.304688 326.320312 114.191406 323.417969 127.308594 C 320.859375 138.875 314.625 148.445312 307.816406 157.773438 C 307.125 158.722656 301.328125 159.671875 300.511719 158.976562 C 299.457031 158.085938 300.175781 157.214844 300.726562 156.453125 C 303.910156 152.042969 307 147.578125 309.6875 142.84375 C 314.707031 133.992188 317.476562 124.558594 316.238281 114.335938 C 315.550781 108.65625 312.90625 103.699219 308.921875 99.515625 C 303.601562 93.933594 297.335938 89.757812 290.082031 87.179688 C 285.707031 85.625 281.160156 84.609375 276.519531 84.242188 C 265.328125 83.359375 254.539062 85.601562 243.886719 88.714844 C 228.667969 93.15625 214.355469 99.582031 201.253906 108.550781 C 193.226562 114.042969 185.636719 120.070312 180.386719 128.46875 C 179.21875 130.339844 178.410156 132.355469 175.53125 132.304688 Z M 175.53125 132.304688 " fill-opacity="1" fill-rule="nonzero"/></g><path fill="#ff5757" d="M 249.847656 236.734375 C 249.53125 237.746094 249.316406 238.609375 248.949219 239.402344 C 247.609375 242.335938 247.433594 242.351562 244.601562 240.777344 C 242.382812 239.542969 239.898438 239.246094 237.429688 238.980469 C 235.351562 238.757812 234.625 237.859375 235.003906 235.816406 C 235.773438 231.660156 237.890625 230.152344 242.148438 230.726562 C 243.726562 230.941406 245.242188 231.148438 246.757812 231.882812 C 248.832031 232.894531 249.832031 234.324219 249.847656 236.734375 Z M 249.847656 236.734375 " fill-opacity="1" fill-rule="nonzero"/><path fill="#ff5757" d="M 300.082031 236.199219 C 304.261719 236.898438 307.660156 234.175781 311.976562 234.019531 C 310.570312 236.804688 308.117188 236.902344 306.246094 237.285156 C 301.121094 238.332031 295.910156 238.414062 290.820312 236.796875 C 283.664062 234.523438 278.144531 230 273.929688 223.929688 C 268.511719 216.121094 265.75 207.402344 265.726562 197.859375 C 265.722656 197.300781 265.757812 196.734375 265.828125 196.179688 C 265.855469 195.960938 266.019531 195.753906 266.140625 195.507812 C 267.726562 195.425781 267.464844 196.644531 267.453125 197.492188 C 267.363281 204.597656 269.140625 211.269531 272.269531 217.574219 C 276.953125 227.003906 284.191406 233.46875 294.578125 235.996094 C 296.253906 236.398438 298.089844 236.148438 300.082031 236.199219 Z M 300.082031 236.199219 " fill-opacity="1" fill-rule="nonzero"/><path fill="#ff5757" d="M 99.066406 119.753906 C 95.617188 116.320312 91.972656 113.550781 87.265625 112.472656 C 79.9375 110.792969 72.832031 111.222656 65.988281 114.515625 C 62.804688 116.046875 59.851562 117.929688 57.210938 120.285156 C 56.738281 120.707031 56.359375 121.28125 55.527344 121.042969 C 54.625 119.921875 55.570312 119.378906 56.285156 118.765625 C 61.304688 114.46875 67.019531 111.171875 73.488281 110.21875 C 83.457031 108.746094 92.839844 110.335938 99.921875 118.570312 C 100.398438 119.121094 100.394531 119.125 100.761719 120.4375 C 99.976562 120.988281 99.648438 120.230469 99.066406 119.753906 Z M 99.066406 119.753906 " fill-opacity="1" fill-rule="nonzero"/><path fill="#ff5757" d="M 121.09375 252.089844 C 115.894531 249.523438 111.574219 246.207031 108.28125 241.585938 C 106.242188 238.722656 104.976562 235.605469 104.746094 232.109375 C 104.6875 231.207031 104.402344 230.164062 105.925781 229.035156 C 106 236.671875 109.871094 242.0625 115.207031 246.441406 C 120.53125 250.8125 126.917969 252.761719 133.914062 253.265625 C 133.191406 255.484375 131.605469 254.875 130.480469 254.671875 C 127.34375 254.105469 124.226562 253.386719 121.09375 252.089844 Z M 121.09375 252.089844 " fill-opacity="1" fill-rule="nonzero"/><path fill="#ff5757" d="M 91.527344 213.378906 C 98.027344 210.214844 103.460938 205.828125 108.636719 201.0625 C 106.730469 207.777344 83.863281 221.148438 75.070312 218.707031 C 80.6875 217.5 86.207031 216.023438 91.527344 213.378906 Z M 91.527344 213.378906 " fill-opacity="1" fill-rule="nonzero"/><path fill="#ff5757" d="M 49.785156 197.253906 C 49.230469 199.511719 50.066406 201.71875 49.125 203.875 C 47.355469 201.101562 48.433594 193.253906 51.144531 188.273438 C 55.722656 179.867188 59.875 175.4375 64.121094 175.386719 C 56.144531 181.003906 51.976562 188.402344 49.785156 197.253906 Z M 49.785156 197.253906 " fill-opacity="1" fill-rule="nonzero"/><path fill="#ff5757" d="M 308.914062 176.070312 C 315.347656 173.847656 325.261719 177.953125 324.957031 181.964844 C 320.625 178.144531 315.953125 175.597656 310.085938 177.164062 C 304.410156 178.683594 301.015625 182.542969 299.472656 188.367188 C 297.394531 184.582031 302.878906 177.675781 308.914062 176.070312 Z M 308.914062 176.070312 " fill-opacity="1" fill-rule="nonzero"/><path fill="#ff5757" d="M 189.648438 182.917969 C 186.855469 179.777344 185.363281 176.304688 185.28125 171.617188 C 187.253906 173.773438 187.285156 176.132812 188.101562 178.082031 C 191.253906 185.617188 200.582031 188.007812 206.6875 183.183594 C 207.007812 182.929688 207.378906 182.785156 208.101562 183.195312 C 207.503906 185.359375 205.414062 185.890625 203.796875 186.414062 C 199.367188 187.851562 194.121094 187.707031 189.648438 182.917969 Z M 189.648438 182.917969 " fill-opacity="1" fill-rule="nonzero"/><path fill="#ff5757" d="M 254.699219 138.648438 C 248.730469 136.070312 243.464844 136.824219 238.695312 141.042969 C 237.894531 141.753906 237.277344 142.566406 236.773438 143.480469 C 236.429688 144.105469 235.980469 144.664062 235.292969 144.195312 C 234.652344 143.761719 234.902344 143.058594 235.285156 142.480469 C 237.398438 139.265625 240.265625 136.804688 244.03125 136.195312 C 247.371094 135.65625 250.90625 135.3125 254.207031 136.851562 C 255.507812 137.457031 255.515625 137.511719 254.699219 138.648438 Z M 254.699219 138.648438 " fill-opacity="1" fill-rule="nonzero"/><path fill="#ff5757" d="M 246.328125 229.917969 C 244.894531 229.109375 243.140625 229.546875 242.03125 228.226562 C 244.152344 227.148438 248.550781 228.402344 251.164062 230.738281 C 252.882812 232.273438 253.515625 234.195312 252.691406 236.222656 C 251.441406 233.128906 249.765625 230.699219 246.328125 229.917969 Z M 246.328125 229.917969 " fill-opacity="1" fill-rule="nonzero"/><path fill="#ff5757" d="M 135.355469 195.46875 C 129.195312 196.050781 123.359375 188.753906 124.765625 182.566406 C 125.371094 184.652344 125.675781 186.347656 126.34375 187.886719 C 127.914062 191.484375 130.480469 193.886719 134.628906 194.21875 C 135.890625 194.324219 135.882812 194.4375 135.355469 195.46875 Z M 135.355469 195.46875 " fill-opacity="1" fill-rule="nonzero"/><path fill="#ff5757" d="M 171.902344 139.800781 C 173.6875 139.808594 175.300781 139.707031 176.859375 141.964844 C 172.414062 140.703125 168.730469 140.53125 166.582031 144.890625 C 165.421875 141.910156 167.476562 140 171.902344 139.800781 Z M 171.902344 139.800781 " fill-opacity="1" fill-rule="nonzero"/><path fill="#ff5757" d="M 314.8125 232.5625 C 314.683594 231.4375 314.683594 231.4375 317.15625 229.679688 C 317.941406 231.09375 317.25 232.027344 314.8125 232.5625 Z M 314.8125 232.5625 " fill-opacity="1" fill-rule="nonzero"/><path fill="#ff5757" d="M 50.855469 124.898438 C 51.296875 123.824219 51.867188 123.117188 53.027344 123.253906 C 52.984375 125.347656 52.472656 125.761719 50.855469 124.898438 Z M 50.855469 124.898438 " fill-opacity="1" fill-rule="nonzero"/><path fill="#ff5757" d="M 51.882812 209.40625 C 50.707031 208.832031 50.09375 208.039062 50.160156 206.285156 C 51.300781 207.414062 52.640625 207.78125 51.882812 209.40625 Z M 51.882812 209.40625 " fill-opacity="1" fill-rule="nonzero"/><path fill="#ff5757" d="M 138.34375 253.734375 C 137.472656 254.121094 136.726562 254.554688 136.140625 253.472656 C 136.75 252.378906 137.757812 252.476562 138.628906 252.738281 C 139.222656 252.914062 138.703125 253.355469 138.34375 253.734375 Z M 138.34375 253.734375 " fill-opacity="1" fill-rule="nonzero"/><path fill="#ff5757" d="M 209.398438 182.246094 C 209.554688 181.523438 209.726562 180.914062 210.492188 180.820312 C 210.679688 182.183594 210.679688 182.183594 209.398438 182.246094 Z M 209.398438 182.246094 " fill-opacity="1" fill-rule="nonzero"/><path fill="#ff5757" d="M 234.03125 146.882812 C 235.171875 146.917969 235.171875 146.917969 234.734375 148.511719 C 233.75 148.410156 234 147.664062 234.03125 146.882812 Z M 234.03125 146.882812 " fill-opacity="1" fill-rule="nonzero"/><path fill="#ff5757" d="M 252.878906 238.984375 C 252.492188 239.421875 252.269531 239.953125 251.574219 239.488281 C 251.65625 238.75 251.835938 238.085938 252.808594 238.050781 C 252.847656 238.046875 252.90625 238.570312 252.878906 238.984375 Z M 252.878906 238.984375 " fill-opacity="1" fill-rule="nonzero"/><path fill="#ff5757" d="M 178.945312 142.445312 C 178.085938 142.238281 177.878906 141.804688 178.332031 141.238281 C 178.625 140.875 179.070312 141.046875 179.367188 141.304688 C 179.921875 141.792969 179.898438 142.21875 178.945312 142.445312 Z M 178.945312 142.445312 " fill-opacity="1" fill-rule="nonzero"/><path fill="#ff5757" d="M 299.03125 191.988281 C 298.222656 191.976562 298.042969 191.535156 298.265625 190.941406 C 298.316406 190.808594 298.6875 190.65625 298.8125 190.714844 C 299.3125 190.960938 299.285156 191.417969 299.03125 191.988281 Z M 299.03125 191.988281 " fill-opacity="1" fill-rule="nonzero"/><path fill="#ff5757" d="M 147.515625 213.566406 C 149.144531 211.488281 150.734375 209.644531 153.257812 209.027344 C 153.992188 210.214844 153.109375 210.503906 152.585938 210.890625 C 149.019531 213.546875 146.851562 216.855469 147.390625 221.53125 C 147.472656 222.246094 147.773438 223.449219 146.675781 223.515625 C 145.324219 223.597656 145.773438 222.296875 145.683594 221.511719 C 145.375 218.722656 145.886719 216.097656 147.515625 213.566406 Z M 147.515625 213.566406 " fill-opacity="1" fill-rule="nonzero"/></svg>