<svg xmlns="http://www.w3.org/2000/svg" xmlns:xlink="http://www.w3.org/1999/xlink" width="500" zoomAndPan="magnify" viewBox="0 0 375 374.999991" height="500" preserveAspectRatio="xMidYMid meet" version="1.0"><defs><clipPath id="672891b33b"><path d="M 13.136719 13.136719 L 361.886719 13.136719 L 361.886719 361.886719 L 13.136719 361.886719 Z M 13.136719 13.136719 " clip-rule="nonzero"/></clipPath><clipPath id="48f9d28082"><path d="M 19.511719 19.511719 L 355.511719 19.511719 L 355.511719 355.511719 L 19.511719 355.511719 Z M 19.511719 19.511719 " clip-rule="nonzero"/></clipPath><clipPath id="2e9eda74a3"><path d="M 47.628906 63.769531 L 327.378906 63.769531 L 327.378906 311.269531 L 47.628906 311.269531 Z M 47.628906 63.769531 " clip-rule="nonzero"/></clipPath></defs><g clip-path="url(#672891b33b)"><path fill="#ff5757" d="M 187.511719 13.136719 C 91.207031 13.136719 13.136719 91.207031 13.136719 187.511719 C 13.136719 283.816406 91.207031 361.886719 187.511719 361.886719 C 283.816406 361.886719 361.886719 283.816406 361.886719 187.511719 C 361.886719 91.207031 283.816406 13.136719 187.511719 13.136719 " fill-opacity="1" fill-rule="nonzero"/></g><g clip-path="url(#48f9d28082)"><path fill="#ffffff" d="M 187.511719 19.511719 C 94.726562 19.511719 19.511719 94.726562 19.511719 187.511719 C 19.511719 280.296875 94.726562 355.511719 187.511719 355.511719 C 280.296875 355.511719 355.511719 280.296875 355.511719 187.511719 C 355.511719 94.726562 280.296875 19.511719 187.511719 19.511719 " fill-opacity="1" fill-rule="nonzero"/></g><g clip-path="url(#2e9eda74a3)"><path fill="#ff5757" d="M 318.515625 183.554688 L 245.285156 183.554688 L 245.285156 191.488281 L 318.515625 191.488281 Z M 310.265625 172.015625 L 253.539062 172.015625 L 253.539062 179.949219 L 310.265625 179.949219 Z M 310.265625 195.097656 L 253.539062 195.097656 L 253.539062 203.027344 L 310.265625 203.027344 Z M 129.75 183.554688 L 56.519531 183.554688 L 56.519531 191.488281 L 129.75 191.488281 Z M 121.5 172.015625 L 64.773438 172.015625 L 64.773438 179.949219 L 121.5 179.949219 Z M 121.5 195.097656 L 64.773438 195.097656 L 64.773438 203.027344 L 121.5 203.027344 Z M 251.117188 258.625 C 254.683594 266.117188 253.792969 274.300781 248.4375 278.390625 C 244.019531 281.761719 237.71875 281.472656 232.117188 278.230469 C 224.445312 275.488281 214.75 261.9375 208.953125 253.167969 L 187.519531 218.816406 L 166.082031 253.167969 C 160.285156 261.9375 150.589844 275.488281 142.917969 278.230469 C 137.320312 281.472656 131.019531 281.761719 126.601562 278.390625 C 121.246094 274.300781 120.351562 266.117188 123.917969 258.625 C 126.753906 250.757812 134.9375 240.710938 141.148438 234.132812 L 174.53125 198 L 161.792969 177.589844 C 161.792969 177.589844 146.667969 177.636719 144.832031 175.90625 C 142.996094 174.183594 102.144531 113.488281 102.144531 113.488281 L 103.957031 112.101562 L 140.167969 157.574219 C 140.167969 157.574219 141.964844 159.960938 144.15625 158.277344 C 145.679688 157.109375 145.792969 156.125 144.441406 154.171875 C 143.089844 152.21875 109.226562 108.082031 109.226562 108.082031 L 111.6875 106.203125 L 147.984375 151.683594 C 147.984375 151.683594 149.34375 153.597656 151.164062 152.511719 C 151.359375 152.394531 151.515625 152.296875 151.640625 152.214844 C 151.75 152.117188 151.886719 151.992188 152.050781 151.835938 C 153.578125 150.363281 152.09375 148.546875 152.09375 148.546875 L 117.800781 101.535156 L 120.214844 99.691406 C 120.214844 99.691406 153.898438 143.964844 155.425781 145.789062 C 156.953125 147.605469 157.933594 147.753906 159.460938 146.597656 C 161.660156 144.921875 159.835938 142.558594 159.835938 142.558594 L 125.527344 95.636719 L 127.339844 94.25 C 127.339844 94.25 175.105469 149.671875 176.289062 151.898438 C 177.46875 154.121094 173.433594 168.703125 173.433594 168.703125 L 187.519531 183.945312 L 201.601562 168.703125 C 201.601562 168.703125 197.566406 154.121094 198.75 151.898438 C 199.929688 149.671875 247.695312 94.25 247.695312 94.25 L 249.507812 95.636719 L 215.203125 142.558594 C 215.203125 142.558594 213.375 144.921875 215.578125 146.597656 C 217.105469 147.753906 218.085938 147.605469 219.613281 145.789062 C 221.140625 143.964844 254.824219 99.691406 254.824219 99.691406 L 257.238281 101.535156 L 222.945312 148.546875 C 222.945312 148.546875 221.460938 150.363281 222.984375 151.835938 C 223.152344 151.992188 223.285156 152.117188 223.394531 152.214844 C 223.519531 152.296875 223.675781 152.394531 223.871094 152.511719 C 225.695312 153.597656 227.050781 151.683594 227.050781 151.683594 L 263.351562 106.203125 L 265.8125 108.082031 C 265.8125 108.082031 231.945312 152.21875 230.59375 154.171875 C 229.242188 156.125 229.359375 157.109375 230.878906 158.277344 C 233.074219 159.960938 234.871094 157.574219 234.871094 157.574219 L 271.078125 112.101562 L 272.890625 113.488281 C 272.890625 113.488281 232.039062 174.183594 230.207031 175.90625 C 228.371094 177.636719 213.246094 177.589844 213.246094 177.589844 L 200.503906 198 L 233.886719 234.132812 C 240.101562 240.710938 248.285156 250.757812 251.117188 258.625 Z M 52.570312 253.679688 L 187.542969 306.019531 L 322.46875 256.710938 L 322.46875 122.652344 L 190.949219 69.03125 L 52.570312 119.648438 Z M 187.492188 311.269531 L 47.65625 257.042969 L 47.65625 116.214844 L 191.042969 63.765625 L 327.382812 119.347656 L 327.382812 260.148438 L 187.492188 311.269531 " fill-opacity="1" fill-rule="nonzero"/></g></svg>